<?xml version="1.0" encoding="UTF-8" standalone="no"?>
<svg
   xmlns:dc="http://purl.org/dc/elements/1.1/"
   xmlns:cc="http://creativecommons.org/ns#"
   xmlns:rdf="http://www.w3.org/1999/02/22-rdf-syntax-ns#"
   xmlns:svg="http://www.w3.org/2000/svg"
   xmlns="http://www.w3.org/2000/svg"
   xmlns:sodipodi="http://sodipodi.sourceforge.net/DTD/sodipodi-0.dtd"
   xmlns:inkscape="http://www.inkscape.org/namespaces/inkscape"
   width="24"
   height="10"
   viewBox="0 0 6.350004 2.645835"
   version="1.1"
   id="svg8"
   inkscape:version="1.0.1 (3bc2e813f5, 2020-09-07)"
   sodipodi:docname="logo.svg">
  <defs
     id="defs2">
    <filter
       y="-0.25"
       height="1.5"
       inkscape:menu-tooltip="Darkens the edge with an inner blur and adds a flexible glow"
       inkscape:menu="Shadows and Glows"
       inkscape:label="Dark and Glow"
       style="color-interpolation-filters:sRGB"
       id="filter72">
      <feGaussianBlur
         stdDeviation="5"
         result="result6"
         id="feGaussianBlur62" />
      <feComposite
         result="result8"
         in="SourceGraphic"
         operator="atop"
         in2="result6"
         id="feComposite64" />
      <feComposite
         result="result9"
         operator="over"
         in2="SourceAlpha"
         in="result8"
         id="feComposite66" />
      <feColorMatrix
         values="1 0 0 0 0 0 1 0 0 0 0 0 1 0 0 0 0 0 1 0 "
         result="result10"
         id="feColorMatrix68" />
      <feBlend
         in="result10"
         mode="normal"
         in2="result6"
         id="feBlend70" />
    </filter>
  </defs>
  <sodipodi:namedview
     id="base"
     pagecolor="#ffffff"
     bordercolor="#666666"
     borderopacity="1.0"
     inkscape:pageopacity="0.0"
     inkscape:pageshadow="2"
     inkscape:zoom="8"
     inkscape:cx="33.599095"
     inkscape:cy="35.672663"
     inkscape:document-units="mm"
     inkscape:current-layer="layer1"
     inkscape:document-rotation="0"
     showgrid="false"
     units="px"
     inkscape:window-width="1500"
     inkscape:window-height="1040"
     inkscape:window-x="234"
     inkscape:window-y="0"
     inkscape:window-maximized="0" />
  <metadata
     id="metadata5">
    <rdf:RDF>
      <cc:Work
         rdf:about="">
        <dc:format>image/svg+xml</dc:format>
        <dc:type
           rdf:resource="http://purl.org/dc/dcmitype/StillImage" />
        <dc:title></dc:title>
      </cc:Work>
    </rdf:RDF>
  </metadata>
  <g
     inkscape:label="Слой 1"
     inkscape:groupmode="layer"
     id="layer1">
    <g
       aria-label="Endored"
       id="text12"
       style="font-style:normal;font-variant:normal;font-weight:normal;font-stretch:normal;font-size:1.41111px;line-height:1.25;font-family:'Sitka Heading';-inkscape-font-specification:'Sitka Heading, Normal';font-variant-ligatures:normal;font-variant-caps:normal;font-variant-numeric:normal;font-variant-east-asian:normal;stroke-width:0.264583;filter:url(#filter72)"
       transform="translate(-5.8539062,-3.7703125)">
      <path
         d="m 6.5746951,5.8541467 0.086548,-0.021951 q 0.011289,-0.00314 0.018815,-0.011916 0.00815,-0.00941 0.00815,-0.023205 v -0.691757 q 0,-0.013798 -0.00815,-0.022578 -0.00753,-0.00878 -0.018815,-0.011916 L 6.5746951,5.0482461 V 5.012498 h 0.6566365 v 0.2107257 h -0.0508 L 7.1441564,5.0934016 q -0.00314,-0.010034 -0.00941,-0.016306 -0.00564,-0.00627 -0.016933,-0.00627 H 6.8086258 v 0.3330219 h 0.1956739 q 0.012543,0 0.018188,-0.00564 0.00564,-0.00564 0.00878,-0.015679 l 0.030731,-0.1009728 h 0.04202 v 0.3041726 h -0.04202 L 7.0312676,5.4853766 q -0.00314,-0.010662 -0.00878,-0.016306 -0.00564,-0.00627 -0.018188,-0.00627 H 6.8086258 V 5.831569 H 7.16987 q 0.010662,0 0.016933,-0.00564 0.00627,-0.00627 0.00878,-0.016933 L 7.230704,5.6628677 H 7.280877 V 5.890522 H 6.5746951 Z"
         style="font-style:normal;font-variant:normal;font-weight:normal;font-stretch:normal;font-size:1.41111px;font-family:'Sitka Heading';-inkscape-font-specification:'Sitka Heading, Normal';font-variant-ligatures:normal;font-variant-caps:normal;font-variant-numeric:normal;font-variant-east-asian:normal;stroke-width:0.264583"
         id="path109" />
      <path
         d="m 7.329763,5.4989664 0.071496,-0.019442 q 0.011916,-0.00314 0.019442,-0.011289 0.00753,-0.00878 0.00753,-0.021951 V 5.0210705 q 0,-0.015052 -0.00878,-0.024459 -0.00815,-0.010035 -0.025714,-0.016933 l -0.06397,-0.024459 v -0.027596 l 0.2050773,-0.040138 v 0.1041086 h 0.00314 q 0.025714,-0.034494 0.0508,-0.055817 0.025714,-0.021951 0.051427,-0.033239 0.025714,-0.011916 0.051427,-0.015679 0.026341,-0.00439 0.052681,-0.00439 0.04202,0 0.079022,0.012543 0.037002,0.012543 0.064597,0.039511 0.027595,0.026341 0.043274,0.068361 0.015679,0.04202 0.015679,0.1003456 v 0.3399207 q 0,0.015679 0.00815,0.024459 0.00815,0.00878 0.018815,0.011916 l 0.063343,0.019442 v 0.03512 H 7.7405528 v -0.035121 l 0.067106,-0.019442 q 0.011289,-0.00376 0.018815,-0.011916 0.00753,-0.00878 0.00753,-0.024459 V 5.148384 q 0,-0.043274 -0.00502,-0.077141 -0.00502,-0.034494 -0.020069,-0.058326 -0.015052,-0.024459 -0.042647,-0.037002 -0.026968,-0.01317 -0.071496,-0.01317 -0.019442,0 -0.040765,0.00376 -0.020696,0.00314 -0.041392,0.010662 -0.020069,0.00753 -0.038884,0.020069 -0.018188,0.012543 -0.032612,0.030731 v 0.4183157 q 0,0.013798 0.00753,0.021951 0.00815,0.00815 0.019442,0.011289 l 0.05958,0.019442 v 0.035121 h -0.297901 z"
         style="font-style:normal;font-variant:normal;font-weight:normal;font-stretch:normal;font-size:1.41111px;font-family:'Sitka Heading';-inkscape-font-specification:'Sitka Heading, Normal';font-variant-ligatures:normal;font-variant-caps:normal;font-variant-numeric:normal;font-variant-east-asian:normal;stroke-width:0.264583"
         id="path111" />
      <path
         d="m 8.565701,5.4044037 h -0.00314 q -0.026968,0.038257 -0.057072,0.060207 -0.029476,0.021324 -0.057699,0.031985 -0.027595,0.010662 -0.052054,0.01317 -0.024459,0.00251 -0.040765,0.00251 -0.058953,0 -0.1053629,-0.023205 -0.04641,-0.023205 -0.078395,-0.06397 -0.031985,-0.041393 -0.049546,-0.09721 -0.016933,-0.056444 -0.016933,-0.1229234 0,-0.074005 0.020696,-0.1386024 0.020696,-0.065225 0.058953,-0.1135159 0.038257,-0.048291 0.094074,-0.076514 0.055817,-0.028222 0.1266863,-0.028222 0.028222,0 0.0508,0.00564 0.023205,0.00502 0.04202,0.013797 0.018815,0.00878 0.033867,0.020069 0.015052,0.011289 0.026968,0.023205 V 4.8826065 4.6725079 q 0,-0.015052 -0.00815,-0.025086 -0.00753,-0.010034 -0.025714,-0.015679 l -0.077139,-0.026968 v -0.027595 l 0.2238961,-0.033867 v 0.8341228 q 0,0.015679 0.00815,0.025714 0.00815,0.00941 0.026341,0.015052 l 0.06397,0.023205 v 0.027595 l -0.1956739,0.043274 h -0.00878 z m -0.0069,-0.4565725 q -0.011289,-0.00941 -0.030104,-0.016306 -0.018188,-0.0069 -0.038257,-0.011289 -0.019442,-0.00502 -0.038257,-0.0069 -0.018815,-0.00251 -0.031358,-0.00251 -0.050173,0 -0.087175,0.020069 -0.036375,0.020069 -0.060835,0.054563 -0.024459,0.033867 -0.036375,0.079022 -0.011916,0.044528 -0.011916,0.094701 0,0.05958 0.010662,0.109753 0.011289,0.050173 0.035121,0.086548 0.023832,0.036375 0.060207,0.057072 0.036375,0.020069 0.087175,0.020069 0.015052,0 0.034494,-0.00314 0.019442,-0.00314 0.038884,-0.010662 0.020069,-0.00815 0.03763,-0.020696 0.018188,-0.012543 0.030104,-0.030731 z"
         style="font-style:normal;font-variant:normal;font-weight:normal;font-stretch:normal;font-size:1.41111px;font-family:'Sitka Heading';-inkscape-font-specification:'Sitka Heading, Normal';font-variant-ligatures:normal;font-variant-caps:normal;font-variant-numeric:normal;font-variant-east-asian:normal;stroke-width:0.264583"
         id="path113" />
      <path
         d="m 9.1880945,5.4424648 q -0.06836,0 -0.1241777,-0.023205 -0.055817,-0.023205 -0.095328,-0.066479 -0.039511,-0.043274 -0.061462,-0.1047357 -0.021323,-0.062089 -0.021323,-0.1379752 0,-0.070242 0.021323,-0.1310765 0.021323,-0.061462 0.060834,-0.1066172 0.040138,-0.045783 0.09721,-0.071496 0.057072,-0.026341 0.129195,-0.026341 0.077768,0 0.1342122,0.027595 0.057072,0.027595 0.094074,0.073378 0.037002,0.045783 0.05519,0.1066172 0.018815,0.060207 0.018815,0.125432 0,0.069615 -0.021323,0.1310765 -0.021323,0.060834 -0.060835,0.1066172 -0.039511,0.045155 -0.096583,0.071496 -0.057072,0.025714 -0.1298215,0.025714 z m 0.00878,-0.052054 q 0.052054,0 0.085921,-0.025714 0.033867,-0.025714 0.053309,-0.065225 0.020069,-0.040138 0.028222,-0.087802 0.00815,-0.047664 0.00815,-0.091565 0,-0.053309 -0.010034,-0.10599 -0.010035,-0.052681 -0.032612,-0.094074 -0.021951,-0.04202 -0.057699,-0.067733 -0.035748,-0.026341 -0.086548,-0.026341 -0.034494,0 -0.060835,0.011916 -0.025714,0.011916 -0.045155,0.032612 -0.019442,0.020069 -0.032612,0.047037 -0.01317,0.026341 -0.021323,0.056444 -0.00815,0.029477 -0.011916,0.060835 -0.00314,0.031358 -0.00314,0.060207 0,0.031985 0.00376,0.066479 0.00376,0.034494 0.012543,0.067106 0.00878,0.032612 0.022578,0.062089 0.014425,0.029477 0.035121,0.052054 0.020696,0.021951 0.048291,0.035121 0.028222,0.012543 0.06397,0.012543 z"
         style="font-style:normal;font-variant:normal;font-weight:normal;font-stretch:normal;font-size:1.41111px;font-family:'Sitka Heading';-inkscape-font-specification:'Sitka Heading, Normal';font-variant-ligatures:normal;font-variant-caps:normal;font-variant-numeric:normal;font-variant-east-asian:normal;stroke-width:0.264583"
         id="path115" />
      <path
         d="m 9.6287091,5.4101238 0.072751,-0.019442 q 0.011916,-0.00314 0.019442,-0.011289 0.00753,-0.00878 0.00753,-0.021951 V 4.9359909 q 0,-0.016306 -0.00941,-0.026968 -0.00878,-0.011289 -0.025714,-0.016933 l -0.065226,-0.025714 v -0.027595 l 0.2050813,-0.040138 v 0.141111 h 0.00251 q 0.020696,-0.030731 0.041393,-0.057699 0.021323,-0.026968 0.045155,-0.04641 0.023832,-0.019442 0.050173,-0.030731 0.026968,-0.011289 0.058326,-0.011289 0.01693,0 0.03073,0.00188 0.0138,0.00125 0.02571,0.00439 0.01192,0.00314 0.02258,0.00815 0.01066,0.00439 0.02258,0.011289 v 0.1505184 h -0.04955 l -0.01944,-0.0508 q -0.0025,-0.0069 -0.01066,-0.011916 -0.0075,-0.00564 -0.01756,-0.00941 -0.01004,-0.00376 -0.02132,-0.00564 -0.01129,-0.00188 -0.021324,-0.00188 -0.024459,0 -0.045155,0.00753 -0.020696,0.0069 -0.039511,0.019442 -0.018188,0.011916 -0.035121,0.029476 -0.016306,0.016933 -0.031358,0.037002 v 0.3737874 q 0,0.013798 0.00753,0.022578 0.00753,0.00815 0.019442,0.010662 l 0.087175,0.019442 v 0.035119 H 9.6287091 Z"
         style="font-style:normal;font-variant:normal;font-weight:normal;font-stretch:normal;font-size:1.41111px;font-family:'Sitka Heading';-inkscape-font-specification:'Sitka Heading, Normal';font-variant-ligatures:normal;font-variant-caps:normal;font-variant-numeric:normal;font-variant-east-asian:normal;stroke-width:0.264583"
         id="path117" />
      <path
         d="m 10.709212,5.5120248 v 0.05519 q -0.0207,0.018815 -0.04829,0.03763 -0.02759,0.018188 -0.06021,0.033239 -0.03261,0.014425 -0.06961,0.023205 -0.037,0.00941 -0.07651,0.00941 -0.06397,0 -0.117906,-0.021323 -0.05394,-0.021323 -0.09345,-0.063343 -0.03888,-0.04202 -0.06083,-0.1028542 -0.02195,-0.061462 -0.02195,-0.1417382 0,-0.06836 0.0207,-0.1298221 0.02132,-0.061462 0.06021,-0.1072444 0.03888,-0.045783 0.09407,-0.072751 0.05519,-0.027595 0.12355,-0.027595 0.06021,0 0.106617,0.021324 0.04704,0.020696 0.07902,0.05519 0.03261,0.034494 0.04892,0.080276 0.01693,0.045156 0.01693,0.09282 0,0.00564 -6.27e-4,0.01317 0,0.0069 -6.27e-4,0.014425 0,0.00753 -0.0013,0.015052 -0.0013,0.0069 -0.0019,0.012543 h -0.427096 q 0,0.1367209 0.05519,0.2088443 0.05582,0.072123 0.162435,0.072123 0.03575,0 0.06648,-0.00815 0.03073,-0.00815 0.05582,-0.019442 0.02571,-0.011916 0.04516,-0.025086 0.02007,-0.013798 0.03387,-0.025086 z M 10.590052,5.258025 q 0,-0.04202 -0.0075,-0.079022 -0.0069,-0.037002 -0.02383,-0.064597 -0.01631,-0.027595 -0.04265,-0.043274 -0.02571,-0.015679 -0.06397,-0.015679 -0.03575,0 -0.0646,0.014425 -0.02885,0.013798 -0.0508,0.040138 -0.02195,0.026341 -0.03575,0.06397 -0.0138,0.037002 -0.01882,0.08404 z"
         style="font-style:normal;font-variant:normal;font-weight:normal;font-stretch:normal;font-size:1.41111px;font-family:'Sitka Heading';-inkscape-font-specification:'Sitka Heading, Normal';font-variant-ligatures:normal;font-variant-caps:normal;font-variant-numeric:normal;font-variant-east-asian:normal;stroke-width:0.264583"
         id="path119" />
      <path
         d="m 11.236992,5.7951937 h -0.0031 q -0.02697,0.038257 -0.05707,0.060207 -0.02948,0.021324 -0.0577,0.031985 -0.02759,0.010662 -0.05205,0.01317 -0.02446,0.00251 -0.04077,0.00251 -0.05895,0 -0.105363,-0.023205 -0.04641,-0.023205 -0.07839,-0.06397 -0.03199,-0.041393 -0.04955,-0.09721 -0.01693,-0.056444 -0.01693,-0.1229234 0,-0.074005 0.0207,-0.1386024 0.0207,-0.065225 0.05895,-0.1135159 0.03826,-0.048291 0.09407,-0.076514 0.05582,-0.028222 0.126687,-0.028222 0.02822,0 0.0508,0.00564 0.02321,0.00502 0.04202,0.013797 0.01882,0.00878 0.03387,0.020069 0.01505,0.011289 0.02697,0.023205 V 5.2733965 5.0632979 q 0,-0.015052 -0.0082,-0.025086 -0.0075,-0.010034 -0.02571,-0.015679 l -0.07714,-0.026968 v -0.027595 l 0.223896,-0.033867 v 0.8341228 q 0,0.015679 0.0082,0.025714 0.0082,0.00941 0.02634,0.015052 l 0.06397,0.023205 v 0.027595 l -0.195674,0.043274 h -0.0088 z m -0.0069,-0.4565725 q -0.01129,-0.00941 -0.0301,-0.016306 -0.01819,-0.0069 -0.03826,-0.011289 -0.01944,-0.00502 -0.03826,-0.0069 -0.01882,-0.00251 -0.03136,-0.00251 -0.05017,0 -0.08717,0.020069 -0.03638,0.020069 -0.06084,0.054563 -0.02446,0.033867 -0.03637,0.079022 -0.01192,0.044528 -0.01192,0.094701 0,0.05958 0.01066,0.109753 0.01129,0.050173 0.03512,0.086548 0.02383,0.036375 0.06021,0.057072 0.03638,0.020069 0.08718,0.020069 0.01505,0 0.03449,-0.00314 0.01944,-0.00314 0.03888,-0.010662 0.02007,-0.00815 0.03763,-0.020696 0.01819,-0.012543 0.0301,-0.030731 z"
         style="font-style:normal;font-variant:normal;font-weight:normal;font-stretch:normal;font-size:1.41111px;font-family:'Sitka Heading';-inkscape-font-specification:'Sitka Heading, Normal';font-variant-ligatures:normal;font-variant-caps:normal;font-variant-numeric:normal;font-variant-east-asian:normal;stroke-width:0.264583"
         id="path121" />
    </g>
    <path
       style="fill:#ffff00;stroke-width:0.178571"
       d=""
       id="path22"
       transform="scale(0.26458333)" />
    <path
       style="fill:#ffff00;stroke-width:0.00413411"
       d="m 1.4812535,1.7380336 v -0.015589 l 0.0377,-0.00983 c 0.0216,-0.00564 0.04234,-0.01383 0.04858,-0.01919 l 0.01088,-0.00935 0.0012,-0.2163678 c 6.62e-4,-0.1190023 1.47e-4,-0.2222811 -0.0012,-0.2295084 -0.0038,-0.021053 -0.01412,-0.029567 -0.05586,-0.046166 -0.03632,-0.014444 -0.03937,-0.016536 -0.0405,-0.027846 l -0.0012,-0.012229 0.09217,-0.01819 c 0.0507,-0.010004 0.09543,-0.019021 0.09941,-0.020037 0.0066,-0.00169 0.0072,0.00269 0.0072,0.050311 0,0.028687 0.0011,0.052159 0.0023,0.052159 0.0013,0 0.01758,-0.015391 0.03617,-0.034203 0.05344,-0.054061 0.09864,-0.073284 0.172305,-0.073284 0.0677,0 0.112785,0.017161 0.148902,0.056678 0.011,0.012039 0.02492,0.032278 0.03093,0.044976 0.02117,0.04476 0.02259,0.061884 0.02267,0.273834 l 7.2e-5,0.1956549 0.01137,0.011239 c 0.0073,0.00725 0.02346,0.014838 0.04546,0.021386 l 0.03409,0.010147 2.1e-5,0.015502 2e-5,0.015502 h -0.147008 -0.14701 l 0.0013,-0.015121 0.0013,-0.015124 0.03721,-0.011552 c 0.02553,-0.00792 0.04013,-0.01493 0.04651,-0.022315 l 0.0093,-0.010766 v -0.168343 c 0,-0.2146717 -0.004,-0.2475811 -0.03523,-0.2885007 -0.0419,-0.054938 -0.180705,-0.049647 -0.246039,0.00938 l -0.01639,0.014806 v 0.218815 0.2188149 l 0.0093,0.00926 c 0.0051,0.00509 0.02464,0.013843 0.04339,0.019449 l 0.03409,0.010192 2.1e-5,0.015502 2e-5,0.015502 h -0.14676 -0.146761 z"
       id="path28" />
    <path
       style="fill:#ffff00;stroke-width:0.00413411"
       d="m 2.4382743,1.7317557 c -0.07778,-0.018828 -0.143021,-0.087269 -0.171339,-0.179755 -0.01828,-0.059698 -0.02094,-0.1431991 -0.0068,-0.2113811 0.0259,-0.124404 0.100658,-0.2161762 0.202339,-0.2483934 0.02415,-0.00765 0.03818,-0.00914 0.08475,-0.00896 0.06596,2.418e-4 0.0875,0.00673 0.130568,0.039329 l 0.02653,0.020079 V 1.01694 c 0,-0.085335 -0.0015,-0.12905459 -0.0047,-0.13607749 -0.0053,-0.01174 -0.02365,-0.021124 -0.0728,-0.037344 -0.03206,-0.010581 -0.03411,-0.011956 -0.03411,-0.02299 0,-0.013875 -0.0087,-0.011575 0.109554,-0.028878 0.04775,-0.00699 0.09193,-0.013721 0.09818,-0.014973 l 0.01137,-0.00228 V 1.1924044 c 0,0.4496096 -5.03e-4,0.4386498 0.02107,0.4497072 0.0055,0.0028 0.02482,0.01047 0.04301,0.017036 0.031,0.011195 0.03315,0.012756 0.03437,0.024879 7.15e-4,0.00711 5.29e-4,0.012936 -4.23e-4,0.012936 -9.53e-4,0 -0.04394,0.0093 -0.09554,0.020672 -0.0516,0.011369 -0.09559,0.020672 -0.09776,0.020672 -0.0023,0 -0.0039,-0.022468 -0.0039,-0.053743 0,-0.029559 -8.47e-4,-0.053744 -0.0019,-0.053744 -10e-4,0 -0.01732,0.015428 -0.03617,0.034284 -0.03708,0.037083 -0.0683,0.055629 -0.112665,0.066927 -0.03042,0.00775 -0.09103,0.00761 -0.123634,-2.91e-4 z m 0.170108,-0.0741 c 0.03322,-0.00783 0.05501,-0.01905 0.0778,-0.040051 l 0.01819,-0.016769 V 1.3867568 1.1726782 l -0.01757,-0.00837 c -0.03502,-0.016687 -0.0688,-0.023064 -0.12299,-0.023223 -0.04474,-1.299e-4 -0.05433,0.00108 -0.0714,0.00896 -0.0915,0.042249 -0.137178,0.147769 -0.123643,0.2856 0.0059,0.060058 0.01329,0.089601 0.03199,0.127916 0.03904,0.079958 0.117249,0.1154041 0.207626,0.094096 z"
       id="path30" />
    <path
       style="fill:#ffff00;stroke-width:0.00413411"
       d="M 3.2606983,1.664632 C 3.1409973,1.639335 3.0625993,1.5616588 3.0321693,1.4382047 c -0.01286,-0.052191 -0.01272,-0.140941 3.18e-4,-0.1938283 0.02259,-0.091688 0.07998,-0.16797 0.154573,-0.2054636 0.0446,-0.022418 0.08607,-0.03152 0.143616,-0.03152 0.08739,0 0.146663,0.022998 0.202444,0.078548 0.03751,0.037359 0.05513,0.066241 0.07274,0.1192317 0.05637,0.1696937 -1.7e-5,0.3501049 -0.133427,0.4268997 -0.04073,0.023447 -0.08094,0.033534 -0.139685,0.035044 -0.02956,7.673e-4 -0.06198,-3.704e-4 -0.07204,-0.00249 z M 3.3934633,1.60979 c 0.01874,-0.00793 0.04967,-0.035953 0.0662,-0.059981 0.01814,-0.026363 0.03498,-0.07645 0.04231,-0.1258533 0.02396,-0.161366 -0.02573,-0.313004 -0.117158,-0.3575529 -0.02043,-0.00996 -0.02799,-0.01129 -0.06449,-0.011374 -0.03672,-8.52e-5 -0.0439,0.00116 -0.06422,0.011139 -0.0501,0.024606 -0.08765,0.081258 -0.103543,0.156197 -0.01058,0.049894 -0.01158,0.1462853 -0.0021,0.1991072 0.02121,0.1177727 0.07719,0.1889093 0.15536,0.1974122 0.02921,0.00318 0.06816,-8.731e-4 0.0876,-0.00909 z"
       id="path32" />
    <path
       style="fill:#ffff00;stroke-width:0.00413411"
       d="M 3.7708927,1.650507 V 1.634873 l 0.04031,-0.010083 c 0.02624,-0.00656 0.04355,-0.013306 0.04961,-0.01932 l 0.0093,-0.00924 -1.5e-5,-0.2244635 c -1.9e-5,-0.267788 0.0055,-0.2423764 -0.05748,-0.2664487 -0.03996,-0.01528 -0.04156,-0.016375 -0.04164,-0.028414 l -7.9e-5,-0.012523 0.09198,-0.018153 c 0.05059,-0.00999 0.09524,-0.018984 0.09922,-0.02 0.0067,-0.00169 0.0072,0.00357 0.0072,0.068915 0,0.040929 0.0016,0.070762 0.0038,0.070762 0.0021,0 0.01412,-0.014571 0.02667,-0.03238 0.02924,-0.041494 0.07346,-0.083161 0.104228,-0.098215 0.03394,-0.016605 0.09043,-0.019159 0.129846,-0.00587 0.01478,0.00498 0.0292,0.01098 0.03204,0.013324 0.0038,0.00311 0.0052,0.023662 0.0052,0.076105 v 0.071841 h -0.02404 -0.02404 l -0.0095,-0.026951 c -0.01099,-0.03113 -0.02094,-0.040517 -0.05043,-0.047592 -0.05329,-0.012782 -0.107114,0.00675 -0.155286,0.05635 l -0.03021,0.031109 V 1.395411 c 0,0.1317699 0.0014,0.1949383 0.0046,0.2018609 0.0062,0.013692 0.0152,0.017589 0.06569,0.028568 l 0.04341,0.00944 0.0013,0.015428 0.0013,0.015428 h -0.161528 -0.16148 z"
       id="path34" />
    <path
       style="fill:#ffff00;stroke-width:0.00413411"
       d="m 4.5481243,1.8731114 c -0.146951,-0.026959 -0.230914,-0.1297368 -0.241615,-0.2957541 -0.0093,-0.1450048 0.05858,-0.2785646 0.169209,-0.3327145 0.04496,-0.022008 0.07485,-0.029044 0.12338,-0.029044 0.05249,0 0.07651,0.00525 0.119205,0.026085 0.05801,0.028301 0.09858,0.075445 0.119854,0.1392801 0.0094,0.028104 0.01593,0.101366 0.01088,0.1214745 l -0.0027,0.010816 h -0.213457 -0.213453 l 0.0025,0.0406 c 0.0081,0.1329571 0.0627,0.2162365 0.15623,0.2382824 0.0776,0.018291 0.169589,-0.00212 0.241788,-0.053633 0.01429,-0.0102 0.02713,-0.018542 0.02854,-0.018542 0.0014,0 0.002,0.012557 0.0013,0.027905 l -0.0012,0.027905 -0.02894,0.021746 c -0.0612,0.045993 -0.138148,0.074262 -0.210558,0.077357 -0.02289,9.789e-4 -0.0503,1.852e-4 -0.06092,-0.00177 z m 0.186734,-0.4255453 c 0,-0.029119 -0.01134,-0.084632 -0.02239,-0.1096233 -0.01269,-0.028697 -0.03229,-0.050236 -0.05785,-0.063578 -0.01847,-0.00964 -0.02585,-0.010983 -0.06032,-0.010988 -0.03462,-3.5e-6 -0.0421,0.00138 -0.06317,0.011607 -0.03083,0.014981 -0.06043,0.045277 -0.07688,0.078695 -0.01375,0.027924 -0.02945,0.082502 -0.02945,0.1023581 v 0.011742 h 0.15503 0.155029 z"
       id="path36" />
    <path
       style="fill:#ffccaa;stroke-width:0.00413411"
       d="M 5.1140005,2.0825101 C 4.9870955,2.0517591 4.9095185,1.9094062 4.9268435,1.739082 c 0.01903,-0.187072 0.133637,-0.3079559 0.291967,-0.3079559 0.06121,0 0.109489,0.01733 0.147279,0.052867 l 0.01137,0.010692 V 1.364291 1.2338967 l -0.0096,-0.01035 c -0.0063,-0.00676 -0.02561,-0.015687 -0.05581,-0.025749 -0.04423,-0.014737 -0.04622,-0.015901 -0.04622,-0.027001 0,-0.00983 0.0021,-0.011975 0.01344,-0.014052 0.01509,-0.00275 0.204779,-0.03154 0.207841,-0.03154 0.0011,0 0.002,0.191616 0.002,0.4258138 0,0.4094956 2.91e-4,0.426108 0.0077,0.433497 0.0066,0.00665 0.02301,0.013835 0.07603,0.033393 0.009,0.00331 0.01137,0.00683 0.01137,0.016698 0,0.00688 -4.76e-4,0.012504 -0.001,0.012504 -5.56e-4,0 -0.04289,0.00928 -0.09405,0.020627 -0.05116,0.011345 -0.09534,0.020645 -0.09818,0.020672 -0.0039,3.31e-5 -0.0052,-0.013436 -0.0052,-0.053699 0,-0.029559 -8.47e-4,-0.053744 -0.0019,-0.053744 -0.001,0 -0.01732,0.015531 -0.03617,0.034515 -0.03698,0.037237 -0.06706,0.05504 -0.112665,0.066682 -0.02945,0.00752 -0.09069,0.00769 -0.120996,3.44e-4 z m 0.168015,-0.074846 c 0.03209,-0.00756 0.06135,-0.022929 0.0809,-0.042478 l 0.01454,-0.014539 V 1.7372535 1.5238599 l -0.01161,-0.00686 c -0.03538,-0.020897 -0.131375,-0.034037 -0.174818,-0.023927 -0.06323,0.014716 -0.115365,0.069515 -0.137725,0.1447596 -0.02431,0.081805 -0.01356,0.2130864 0.02307,0.2818117 0.0401,0.075228 0.118161,0.1086419 0.205645,0.088021 z"
       id="path38" />
    <path
       style="fill:#ffccaa;stroke-width:0.00413411"
       d="m 4.5234863,1.8652953 c -0.104547,-0.029233 -0.168127,-0.093343 -0.200355,-0.2020221 -0.01469,-0.049558 -0.01846,-0.1361125 -0.0082,-0.1874341 0.02036,-0.1013957 0.0791,-0.185125 0.15905,-0.2267188 0.0448,-0.023307 0.0722,-0.029734 0.127422,-0.029893 0.07386,-2.114e-4 0.128237,0.021 0.177,0.069048 0.05016,0.049425 0.07243,0.1173583 0.06866,0.2094749 l -6.35e-4,0.015502 h -0.215088 -0.215089 l 0.0024,0.027905 c 0.0072,0.082621 0.02094,0.1332638 0.04692,0.1733942 0.03796,0.058631 0.0901,0.084149 0.172037,0.084199 0.06523,4.16e-5 0.119662,-0.016846 0.1799,-0.055814 l 0.02927,-0.018934 -0.0012,0.02581 -0.0012,0.02581 -0.02687,0.020079 c -0.03488,0.026064 -0.09271,0.054088 -0.134359,0.065115 -0.04758,0.012594 -0.123091,0.014713 -0.159696,0.00448 z m 0.211372,-0.4224966 c 0,-0.032267 -0.0104,-0.083033 -0.02248,-0.1097372 -0.01205,-0.026637 -0.03484,-0.049511 -0.06184,-0.062087 -0.02855,-0.013293 -0.07854,-0.013816 -0.112321,-0.00116 -0.03008,0.011255 -0.07042,0.050149 -0.08563,0.082565 -0.01379,0.029385 -0.02778,0.079659 -0.02778,0.099828 v 0.015587 h 0.155029 0.155029 z"
       id="path40" />
    <path
       style="fill:#ffccaa;stroke-width:0.00413411"
       d="m 3.7709481,1.6504635 c 0,-0.013369 0.0012,-0.014608 0.01757,-0.018828 0.04705,-0.012094 0.06152,-0.017346 0.07123,-0.025847 l 0.01054,-0.00923 1.41e-4,-0.219493 c 1.18e-4,-0.1842194 -8.46e-4,-0.2223742 -0.006,-0.2374197 -0.0071,-0.020508 -0.0093,-0.022161 -0.05392,-0.039107 -0.02769,-0.010528 -0.03328,-0.014253 -0.03582,-0.023855 -0.0025,-0.00955 -0.0016,-0.011702 0.0059,-0.013396 0.0344,-0.00775 0.181661,-0.0354 0.182751,-0.03431 7.41e-4,7.41e-4 0.0027,0.031551 0.0043,0.068459 0.0016,0.036909 0.0045,0.067107 0.0064,0.067107 0.0019,0 0.01658,-0.016671 0.03265,-0.037046 0.0335,-0.04247 0.06605,-0.072895 0.09461,-0.08844 0.03835,-0.02087 0.101616,-0.022185 0.146273,-0.00305 l 0.01816,0.00778 0.0027,0.050687 c 0.0015,0.027878 0.0027,0.06072 0.0027,0.072982 v 0.022294 l -0.02339,-0.00124 -0.02339,-0.00124 -0.0077,-0.022548 c -0.0145,-0.042767 -0.0379,-0.055972 -0.09424,-0.053189 -0.04326,0.00214 -0.0694,0.015095 -0.111397,0.055216 l -0.03345,0.031954 v 0.1969688 c 0,0.1684243 8.99e-4,0.1982526 0.0062,0.2058258 0.0064,0.00914 0.0287,0.017666 0.06821,0.026072 0.03661,0.00779 0.03622,0.00756 0.03801,0.02286 l 0.0017,0.01433 h -0.160302 -0.160401 z"
       id="path42" />
    <path
       style="fill:#ffccaa;stroke-width:0.00413411"
       d="m 3.2377603,1.6561977 c -0.07742,-0.022122 -0.140725,-0.07447 -0.175168,-0.1448458 -0.02745,-0.056083 -0.03253,-0.078371 -0.03502,-0.1534719 -0.0017,-0.050933 -6.62e-4,-0.07191 0.0049,-0.099219 0.02182,-0.1078748 0.091,-0.1948106 0.182397,-0.2292117 0.04152,-0.015626 0.06174,-0.018844 0.117483,-0.018687 0.05975,1.678e-4 0.08708,0.00595 0.132152,0.027964 0.04136,0.020198 0.09546,0.073505 0.116754,0.1150252 0.106037,0.2067957 0.0089,0.4670092 -0.188292,0.5044168 -0.04517,0.00857 -0.121688,0.0076 -0.155169,-0.00196 z m 0.157565,-0.046588 c 0.03133,-0.013258 0.06961,-0.056869 0.08504,-0.096882 0.02082,-0.053979 0.02739,-0.094383 0.02747,-0.1688079 1.15e-4,-0.1126757 -0.02518,-0.1912422 -0.07964,-0.2473545 -0.03121,-0.032156 -0.0529,-0.041249 -0.103293,-0.043311 -0.04103,-0.00167 -0.04351,-0.00127 -0.06892,0.011237 -0.04815,0.023701 -0.08267,0.072294 -0.10219,0.1438468 -0.0076,0.027735 -0.0088,0.044048 -0.0091,0.116979 -2.91e-4,0.074837 7.67e-4,0.089041 0.009,0.1214477 0.02455,0.097068 0.07219,0.1563436 0.137229,0.1707203 0.02964,0.00655 0.0792,0.00282 0.104467,-0.00787 z"
       id="path44" />
    <path
       style="fill:#ffccaa;stroke-width:0.00413411"
       d="m 1.4815215,1.7383223 c 0,-0.013369 0.0012,-0.014608 0.01757,-0.01883 0.03221,-0.00829 0.05465,-0.016409 0.06821,-0.024686 l 0.01343,-0.0082 V 1.4565199 1.2264316 l -0.01343,-0.012266 c -0.0074,-0.00675 -0.02738,-0.018211 -0.04443,-0.025479 -0.02057,-0.00877 -0.03267,-0.016568 -0.03597,-0.023185 -0.0027,-0.00548 -0.0043,-0.010641 -0.0035,-0.011462 0.0015,-0.00146 0.182471,-0.03806 0.188224,-0.03806 0.0016,0 0.0042,0.021733 0.0057,0.048292 0.0015,0.026561 0.0036,0.049113 0.0046,0.050116 0.001,0.00101 0.01766,-0.012861 0.03702,-0.030808 0.04194,-0.038884 0.07013,-0.05669 0.103658,-0.065495 0.02899,-0.00761 0.09826,-0.00886 0.127432,-0.00228 0.06752,0.015203 0.123671,0.077209 0.134939,0.1490118 0.0024,0.015438 0.0042,0.1097112 0.0042,0.2215679 2.9e-5,0.1802291 5.56e-4,0.1951675 0.0073,0.2010394 0.011,0.00964 0.03367,0.020376 0.05891,0.027889 0.02179,0.00649 0.02279,0.0074 0.02402,0.022048 l 0.0013,0.015282 h -0.145396 c -0.130874,0 -0.145135,-6.614e-4 -0.142876,-0.00654 0.0014,-0.0036 0.0025,-0.00995 0.0025,-0.014129 0,-0.00582 0.0078,-0.010176 0.03322,-0.018653 0.01827,-0.00608 0.03873,-0.015703 0.04547,-0.021378 l 0.01226,-0.010316 V 1.5092884 c 0,-0.1845323 -0.0032,-0.2303698 -0.01821,-0.2630739 -0.0199,-0.043287 -0.04961,-0.060523 -0.109103,-0.063293 -0.06409,-0.00298 -0.117368,0.01292 -0.156946,0.046841 l -0.0176,0.015089 0.0011,0.2216247 0.0011,0.2216248 0.01447,0.0085 c 0.008,0.00468 0.02656,0.012425 0.04134,0.017224 0.02605,0.00846 0.02691,0.00919 0.02815,0.02377 l 0.0013,0.015047 h -0.144943 -0.144943 z"
       id="path48" />
    <path
       style="fill:#ffccaa;stroke-width:0.00413411"
       d="m 2.4385577,1.7301517 c -0.07614,-0.018801 -0.141904,-0.089649 -0.170519,-0.1837037 -0.01044,-0.034303 -0.01133,-0.042854 -0.01153,-0.1095539 -2.52e-4,-0.087354 0.0073,-0.12406 0.03876,-0.1881024 0.0319,-0.064957 0.07447,-0.1100539 0.129981,-0.1376804 0.04366,-0.02173 0.07141,-0.02694 0.130614,-0.024519 0.061,0.00249 0.07748,0.00761 0.116704,0.03623 0.01549,0.011303 0.02906,0.02055 0.03014,0.02055 0.0011,0 0.002,-0.058686 0.002,-0.1304126 V 0.88254648 l -0.0095,-0.00954 c -0.0053,-0.00525 -0.02525,-0.015404 -0.04444,-0.022569 -0.04547,-0.016973 -0.05524,-0.022193 -0.05681,-0.03035 -7.14e-4,-0.00371 0.0021,-0.0078 0.0062,-0.00909 0.0083,-0.00262 0.19396,-0.031428 0.202528,-0.031428 0.0045,0 0.0055,0.059171 0.0058,0.32556122 3.97e-4,0.3606463 0.0036,0.5151272 0.01102,0.5285482 0.003,0.00552 0.01801,0.013623 0.04115,0.022265 0.04245,0.015856 0.04669,0.018661 0.04669,0.030862 0,0.00855 -0.0059,0.010374 -0.09311,0.029025 -0.05121,0.010948 -0.09427,0.018754 -0.09567,0.017346 -0.0014,-0.0014 -0.0035,-0.024929 -0.0046,-0.052269 -0.0011,-0.027341 -0.0029,-0.049711 -0.004,-0.049711 -0.0011,0 -0.0157,0.012848 -0.03251,0.028553 -0.06332,0.059133 -0.09241,0.071741 -0.169056,0.073279 -0.02956,5.821e-4 -0.06095,-7.144e-4 -0.06977,-0.00288 z m 0.195856,-0.077651 c 0.01251,-0.00484 0.03344,-0.017222 0.04651,-0.027515 l 0.02377,-0.018714 V 1.387664 1.1690559 l -0.02605,-0.010427 c -0.03448,-0.013803 -0.08467,-0.020754 -0.134175,-0.018582 -0.034,0.00148 -0.04382,0.00359 -0.06302,0.013459 -0.04768,0.024524 -0.08893,0.080267 -0.106587,0.1440481 -0.01033,0.037316 -0.01,0.153563 5.82e-4,0.1992848 0.01938,0.083788 0.06464,0.1410237 0.127847,0.161684 0.0266,0.00869 0.102049,0.00523 0.131109,-0.00602 z"
       id="path50" />
    <path
       style="fill:#ffb380;stroke-width:0.00826823"
       d="m 1.4835155,1.7405119 c 0.0018,-0.00559 0.02357,-0.017867 0.04823,-0.027277 l 0.04484,-0.017108 0.0022,-0.2400594 0.0022,-0.2400593 -0.04121,-0.022429 c -0.03576,-0.019463 -0.05894,-0.038211 -0.04725,-0.038211 0.002,0 0.03988,-0.00744 0.08408,-0.016536 0.0442,-0.0091 0.08368,-0.016536 0.08773,-0.016536 0.004,0 0.0074,0.015814 0.0075,0.03514 2.14e-4,0.059183 0.0092,0.06333 0.05496,0.02526 0.05515,-0.045919 0.08867,-0.061515 0.142628,-0.06636 0.06234,-0.0056 0.110619,0.00898 0.151287,0.045678 0.05785,0.052201 0.05977,0.061361 0.06441,0.3075466 l 0.0041,0.2191081 0.04338,0.020672 c 0.07378,0.035158 0.05995,0.041341 -0.0925,0.041341 -0.08064,0 -0.137993,-0.00332 -0.140989,-0.00817 -0.0028,-0.0045 0.01561,-0.017952 0.04085,-0.029907 l 0.0459,-0.021736 -4.6e-5,-0.1995368 c -2.5e-5,-0.109745 -0.0037,-0.2127705 -0.0082,-0.2289453 -0.0045,-0.016174 -0.01961,-0.04036 -0.03359,-0.053743 -0.0244,-0.023352 -0.02851,-0.024334 -0.101999,-0.024334 -0.0709,0 -0.0796,0.00188 -0.117259,0.025154 l -0.04068,0.025154 -0.0022,0.2280203 -0.0022,0.2280206 0.04052,0.017428 c 0.02228,0.00959 0.04269,0.023093 0.04534,0.030013 0.0042,0.01097 -0.01377,0.012584 -0.140295,0.012584 -0.111152,0 -0.14433,-0.00238 -0.141734,-0.010168 z"
       id="path74" />
    <path
       style="fill:#ffb380;stroke-width:0.00826823"
       d="m 2.4442253,1.7261685 c -0.09851,-0.024844 -0.17434,-0.1287532 -0.183634,-0.2516373 -0.01503,-0.1987422 0.09341,-0.3641676 0.250947,-0.3828257 0.05401,-0.0064 0.123347,0.00885 0.157008,0.034525 0.01472,0.011224 0.02886,0.020407 0.03144,0.020407 0.0026,0 0.0047,-0.061625 0.0047,-0.1369441 V 0.87274911 l -0.05464,-0.024773 c -0.03005,-0.013626 -0.0529,-0.02651 -0.05077,-0.028634 0.0021,-0.00212 0.0388,-0.00929 0.08151,-0.015928 0.0427,-0.00664 0.08788,-0.013891 0.100384,-0.016116 l 0.02274,-0.00405 8.2e-4,0.35739429 c 4.5e-4,0.1965671 0.0032,0.3890204 0.0062,0.4276742 l 0.0054,0.07028 0.03623,0.01828 c 0.01993,0.010054 0.04039,0.019775 0.04547,0.021606 0.01849,0.00666 -0.0045,0.016812 -0.07131,0.031516 -0.105003,0.023103 -0.10238,0.023942 -0.109025,-0.03479 l -0.0057,-0.050206 -0.04293,0.036587 c -0.02361,0.020124 -0.05409,0.042248 -0.06774,0.049167 -0.0297,0.015063 -0.122412,0.024156 -0.157096,0.015412 z m 0.221175,-0.085914 0.03927,-0.023024 V 1.3905233 1.163816 l -0.04284,-0.012724 c -0.06775,-0.020119 -0.151139,-0.016907 -0.192656,0.00742 -0.07058,0.041362 -0.103499,0.116332 -0.103499,0.2357058 0,0.1317623 0.03755,0.2198103 0.109255,0.2562006 0.05154,0.026157 0.136213,0.021638 0.190468,-0.010171 z"
       id="path76" />
    <path
       style="fill:#ffb380;stroke-width:0.03125"
       d=""
       id="path78"
       transform="scale(0.26458333)" />
    <path
       style="fill:#ffb380;stroke-width:0.00826823"
       d="m 3.1985599,1.6345811 c -0.05873,-0.02788 -0.113147,-0.083732 -0.141121,-0.1448353 -0.02454,-0.053593 -0.03478,-0.1636768 -0.02115,-0.2272488 0.0214,-0.099781 0.08896,-0.188496 0.172872,-0.2269975 0.05295,-0.024294 0.168975,-0.025413 0.229148,-0.0022 0.05783,0.022302 0.120864,0.084543 0.149471,0.1475923 0.03258,0.071806 0.03809,0.1861292 0.01291,0.2680347 -0.02072,0.067407 -0.06521,0.1289217 -0.119778,0.1655964 -0.05141,0.034551 -0.08573,0.04353 -0.166605,0.043578 -0.05564,3.3e-5 -0.07402,-0.0037 -0.115755,-0.023511 z m 0.178297,-0.014989 c 0.04613,-0.00923 0.0948,-0.065981 0.115767,-0.1349973 0.01555,-0.0512 0.0174,-0.072572 0.01386,-0.1598176 -0.0051,-0.1261878 -0.0189,-0.1672714 -0.07564,-0.2255152 -0.03839,-0.039409 -0.04633,-0.043751 -0.08975,-0.049065 -0.112105,-0.013719 -0.182337,0.063515 -0.196804,0.2164276 -0.01292,0.136541 0.012,0.2472615 0.06925,0.3077457 0.04366,0.046125 0.09195,0.059495 0.163316,0.045222 z"
       id="path80" />
    <path
       style="fill:#ffb380;stroke-width:0.00826823"
       d="m 3.7779961,1.650319 c 0,-0.00724 0.0141,-0.015838 0.03514,-0.021439 0.06611,-0.017603 0.06417,-0.010552 0.06335,-0.2302743 -3.97e-4,-0.1072991 -0.0032,-0.2136927 -0.0062,-0.2364305 -0.0052,-0.038918 -0.0077,-0.04241 -0.04268,-0.059584 -0.02046,-0.010033 -0.04093,-0.019756 -0.04547,-0.021606 -0.0046,-0.00185 -0.0061,-0.00568 -0.0036,-0.00851 0.0042,-0.00457 0.156724,-0.03846 0.173114,-0.03846 0.0036,0 0.0091,0.029766 0.01235,0.066146 0.0032,0.03638 0.0074,0.066146 0.0093,0.066146 0.0019,0 0.02763,-0.025665 0.05722,-0.057032 0.077,-0.081622 0.122494,-0.098169 0.203328,-0.073951 l 0.03196,0.00958 v 0.068971 c 0,0.068057 -2.65e-4,0.068971 -0.02067,0.068971 -0.01331,0 -0.02067,-0.00464 -0.02067,-0.013039 0,-0.00717 -0.01088,-0.023916 -0.02417,-0.037207 -0.04517,-0.045172 -0.135215,-0.028914 -0.197153,0.035597 l -0.02702,0.028142 0.0022,0.2061598 0.0022,0.2061596 0.05168,0.016224 c 0.02842,0.00892 0.05168,0.021016 0.05168,0.026872 0,0.0083 -0.03371,0.010647 -0.152962,0.010647 -0.128661,0 -0.152962,-0.00193 -0.152962,-0.012084 z"
       id="path82" />
    <path
       style="fill:#ffb380;stroke-width:0.03125"
       d=""
       id="path84"
       transform="scale(0.26458333)" />
    <path
       style="fill:#ffb380;stroke-width:0.00826823"
       d="m 4.5090957,1.8558836 c -0.120895,-0.045351 -0.181817,-0.1321313 -0.193812,-0.2760734 -0.01211,-0.1452554 0.05707,-0.2755296 0.177938,-0.33509 0.05436,-0.026787 0.161912,-0.02639 0.217573,7.938e-4 0.08037,0.039267 0.130318,0.1242867 0.130318,0.2218298 v 0.043975 h -0.215259 -0.215259 l 0.005,0.043408 c 0.01018,0.087952 0.03522,0.1537988 0.07273,0.1913136 0.04436,0.044362 0.09063,0.058275 0.175638,0.05282 0.05059,-0.00325 0.07356,-0.00965 0.119852,-0.033399 0.0568,-0.02914 0.05727,-0.029225 0.05727,-0.010332 0,0.021037 -0.04717,0.055603 -0.119588,0.087638 -0.05167,0.022855 -0.167404,0.029995 -0.212429,0.013105 z m 0.228753,-0.4293018 c -0.0122,-0.094603 -0.0365,-0.1369081 -0.09196,-0.1600803 -0.05334,-0.022288 -0.125162,-0.00534 -0.166108,0.039203 -0.02358,0.025651 -0.04986,0.085451 -0.0569,0.1294964 l -0.0056,0.034789 h 0.163063 0.163063 z"
       id="path86" />
    <path
       style="fill:#ffb380;stroke-width:0.00826823"
       d="m 4.4710197,1.8362273 c -0.09677,-0.048865 -0.142404,-0.12906 -0.149137,-0.2620748 -0.0047,-0.092242 0.01513,-0.1669655 0.0605,-0.2283615 0.03139,-0.042475 0.08742,-0.086427 0.130363,-0.1022591 0.0348,-0.01283 0.131812,-0.013467 0.172971,-0.00114 0.04533,0.013584 0.10793,0.072138 0.128441,0.120152 0.0093,0.021736 0.01953,0.064632 0.02276,0.095328 l 0.0059,0.05581 h -0.215942 -0.215937 l 1.23e-4,0.026872 c 1.76e-4,0.038696 0.02196,0.1255366 0.0407,0.1622734 0.02035,0.039894 0.06461,0.079015 0.104145,0.092064 0.01884,0.00622 0.05808,0.00871 0.101995,0.00647 0.05681,-0.00289 0.08036,-0.00824 0.115443,-0.026247 0.02424,-0.012438 0.05029,-0.021347 0.05788,-0.019799 0.02153,0.00439 -0.02431,0.043087 -0.08839,0.074636 -0.04783,0.023545 -0.06339,0.026884 -0.13711,0.02942 -0.07957,0.00274 -0.08538,0.00175 -0.134676,-0.023154 z m 0.26869,-0.4155574 c -0.0096,-0.066102 -0.03385,-0.116862 -0.06699,-0.1405022 -0.03963,-0.028267 -0.122821,-0.026626 -0.168065,0.00332 -0.03661,0.024231 -0.07314,0.090025 -0.08489,0.1529017 l -0.0067,0.035962 h 0.1671 0.167099 z"
       id="path88" />
    <path
       style="fill:#ffb380;stroke-width:0.00826823"
       d="m 5.0785435,2.0628516 c -0.0526,-0.024908 -0.0885,-0.062889 -0.115688,-0.1223939 -0.02984,-0.065313 -0.03983,-0.1352531 -0.02969,-0.2080643 0.02003,-0.1439384 0.08495,-0.2387098 0.191187,-0.2790746 0.07756,-0.029471 0.194088,-0.015034 0.230125,0.028515 0.0062,0.00754 0.0147,0.013713 0.0188,0.013713 0.0042,0 0.0065,-0.060062 0.0052,-0.1384927 l -0.0023,-0.1384929 -0.05186,-0.020127 c -0.02852,-0.01107 -0.05057,-0.023998 -0.04899,-0.028726 0.0032,-0.00961 0.195542,-0.041105 0.203359,-0.033299 0.0027,0.00273 0.0061,0.1941176 0.0075,0.4253005 0.002,0.3331691 0.0047,0.4221887 0.01327,0.4292843 0.0059,0.00492 0.02528,0.01397 0.04299,0.0201 0.06293,0.021786 0.03429,0.036954 -0.126832,0.067181 l -0.027,0.00506 V 2.028577 1.97382 l -0.044,0.03759 c -0.06143,0.052479 -0.105578,0.070791 -0.170975,0.070914 -0.03953,7.43e-5 -0.06468,-0.00508 -0.09508,-0.019476 z m 0.219941,-0.055817 c 0.01546,-0.00518 0.0402,-0.018389 0.05498,-0.02936 l 0.02687,-0.01995 V 1.7386158 1.5195067 l -0.03101,-0.013287 c -0.01705,-0.00731 -0.06077,-0.014875 -0.09715,-0.016814 -0.05789,-0.00309 -0.07079,-0.00106 -0.103353,0.016248 -0.04207,0.02236 -0.08537,0.079846 -0.100384,0.1332852 -0.01264,0.044977 -0.01244,0.1542986 3.97e-4,0.2141254 0.02689,0.1253744 0.135321,0.1922492 0.249652,0.1539698 z"
       id="path90" />
    <path
       style="fill:#ffb380;stroke-width:0.00826823"
       d="m 0.72532072,2.0591014 c 0,-0.011702 0.01051,-0.017571 0.04548,-0.025397 0.02501,-0.0056 0.05106,-0.015756 0.05788,-0.022577 0.01064,-0.010639 0.0124,-0.063185 0.0124,-0.3698965 0,-0.2732666 -0.0024,-0.360686 -0.01033,-0.371032 -0.0057,-0.00745 -0.03079,-0.018619 -0.0558,-0.024831 -0.03017,-0.0075 -0.04636,-0.015991 -0.04815,-0.025252 -0.0025,-0.012904 0.02167,-0.013957 0.32037998,-0.013957 h 0.323067 v 0.099219 0.099219 h -0.02008 c -0.02078,0 -0.01903,0.00379 -0.05168,-0.1116211 -0.01032,-0.036476 -0.01397,-0.037207 -0.185568,-0.037207 H 0.94856772 v 0.169732 0.1697321 l 0.11336298,-0.0023 0.113363,-0.0023 0.018,-0.057878 c 0.01412,-0.045371 0.02178,-0.058448 0.03547,-0.06052 0.01722,-0.00262 0.01746,-6.085e-4 0.01746,0.1473362 v 0.1499782 l -0.0183,-0.00265 c -0.01441,-0.00209 -0.02145,-0.01302 -0.03313,-0.051474 -0.0082,-0.026858 -0.01898,-0.053833 -0.02406,-0.059945 -0.0069,-0.00825 -0.03663,-0.011112 -0.115698,-0.011112 H 0.94856072 V 1.8345376 2.0247068 H 1.1370757 c 0.130131,0 0.191436,-0.00292 0.197945,-0.00943 0.0052,-0.00519 0.01783,-0.044254 0.02809,-0.086816 0.01684,-0.06987 0.0205,-0.077387 0.0377,-0.077387 0.01894,0 0.01904,6.085e-4 0.01904,0.1116211 v 0.1116214 h -0.347266 c -0.33174698,0 -0.34726498,-6.88e-4 -0.34726498,-0.015221 z"
       id="path92" />
  </g>
</svg>
