<?xml version="1.0" encoding="UTF-8" standalone="no"?>
<svg
   xmlns:dc="http://purl.org/dc/elements/1.1/"
   xmlns:cc="http://creativecommons.org/ns#"
   xmlns:rdf="http://www.w3.org/1999/02/22-rdf-syntax-ns#"
   xmlns:svg="http://www.w3.org/2000/svg"
   xmlns="http://www.w3.org/2000/svg"
   xmlns:sodipodi="http://sodipodi.sourceforge.net/DTD/sodipodi-0.dtd"
   xmlns:inkscape="http://www.inkscape.org/namespaces/inkscape"
   sodipodi:docname="logov2.svg"
   inkscape:version="1.0.1 (3bc2e813f5, 2020-09-07)"
   id="svg8"
   version="1.1"
   viewBox="0 0 32.464792 9.525006"
   height="36"
   width="122.70081">
  <defs
     id="defs2">
    <filter
       style="color-interpolation-filters:sRGB"
       inkscape:label="Drop Shadow"
       id="filter73">
      <feFlood
         flood-opacity="0.498039"
         flood-color="rgb(0,0,0)"
         result="flood"
         id="feFlood63" />
      <feComposite
         in="flood"
         in2="SourceGraphic"
         operator="out"
         result="composite1"
         id="feComposite65" />
      <feGaussianBlur
         in="composite1"
         stdDeviation="3.4"
         result="blur"
         id="feGaussianBlur67" />
      <feOffset
         dx="6"
         dy="6"
         result="offset"
         id="feOffset69" />
      <feComposite
         in="offset"
         in2="SourceGraphic"
         operator="atop"
         result="composite2"
         id="feComposite71" />
    </filter>
  </defs>
  <sodipodi:namedview
     id="base"
     pagecolor="#ffffff"
     bordercolor="#666666"
     borderopacity="1.0"
     inkscape:pageopacity="0.0"
     inkscape:pageshadow="2"
     inkscape:zoom="2.8284271"
     inkscape:cx="151.41901"
     inkscape:cy="11.591971"
     inkscape:document-units="mm"
     inkscape:current-layer="layer1"
     inkscape:document-rotation="0"
     showgrid="false"
     units="px"
     inkscape:window-width="1500"
     inkscape:window-height="1040"
     inkscape:window-x="208"
     inkscape:window-y="0"
     inkscape:window-maximized="0" />
  <metadata
     id="metadata5">
    <rdf:RDF>
      <cc:Work
         rdf:about="">
        <dc:format>image/svg+xml</dc:format>
        <dc:type
           rdf:resource="http://purl.org/dc/dcmitype/StillImage" />
        <dc:title />
      </cc:Work>
    </rdf:RDF>
  </metadata>
  <g
     inkscape:label="Слой 1"
     inkscape:groupmode="layer"
     id="layer1">
    <g
       aria-label="Endor"
       id="text61"
       style="font-style:normal;font-variant:normal;font-weight:normal;font-stretch:normal;font-size:10.5833px;line-height:1.25;font-family:AlundraText;-inkscape-font-specification:'AlundraText, Normal';font-variant-ligatures:normal;font-variant-caps:normal;font-variant-numeric:normal;font-variant-east-asian:normal;font-variation-settings:'wdth' 100, 'wght' 595;opacity:0.997;fill:#e3ca98;fill-opacity:1;stroke:none;stroke-width:0.0700042;filter:url(#filter73)">
      <path
         id="path62"
         style="font-style:normal;font-variant:normal;font-weight:normal;font-stretch:normal;font-size:10.5833px;font-family:AlundraText;-inkscape-font-specification:'AlundraText, Normal';font-variant-ligatures:normal;font-variant-caps:normal;font-variant-numeric:normal;font-variant-east-asian:normal;fill:#e3ca98;fill-opacity:1;stroke-width:0.0700042"
         d="M 26.142752,8.1798563 H 25.481295 V 7.5184001 6.8569438 6.1954876 5.5340314 4.8725752 4.2111189 H 24.819839 V 3.5496627 h 0.661456 V 2.8882065 h 0.661457 v 0.6614562 h 0.661456 V 2.8882065 h 0.661456 0.661456 v 0.6614562 h 0.661456 V 4.2111189 4.8725752 H 28.12712 27.465664 V 4.2111189 h -0.661456 v 0.6614563 0.6614562 0.6614562 0.6614562 0.6614563 0.6614562 z m -3.968738,0 H 21.512558 V 7.5184001 H 20.851102 V 6.8569438 H 20.189645 V 6.1954876 5.5340314 4.8725752 4.2111189 h 0.661457 V 3.5496627 h 0.661456 V 2.8882065 h 0.661456 0.661456 v 0.6614562 h 0.661457 v 0.6614562 h 0.661456 V 4.8725752 5.5340314 6.1954876 6.8569438 H 23.496927 V 7.5184001 H 22.83547 v 0.6614562 z m 0,-1.3229125 H 22.83547 V 6.1954876 5.5340314 4.8725752 4.2111189 H 22.174014 21.512558 V 4.8725752 5.5340314 6.1954876 6.8569438 Z M 18.205277,8.1798563 V 7.5184001 H 17.543821 V 8.1798563 H 16.882364 16.220908 V 7.5184001 H 15.559452 V 6.8569438 H 14.897996 V 6.1954876 5.5340314 4.8725752 4.2111189 h 0.661456 V 3.5496627 h 0.661456 V 2.8882065 h 0.661456 0.661457 V 2.2267503 1.565294 0.9038378 h 0.661456 0.661456 V 1.565294 h 0.661456 V 2.2267503 H 18.866733 V 2.8882065 3.5496627 4.2111189 4.8725752 5.5340314 6.1954876 6.8569438 7.5184001 8.1798563 Z M 16.882364,6.8569438 h 0.661457 V 6.1954876 5.5340314 4.8725752 4.2111189 H 16.882364 16.220908 V 4.8725752 5.5340314 6.1954876 6.8569438 Z M 13.575083,8.1798563 H 12.913627 V 7.5184001 6.8569438 6.1954876 5.5340314 4.8725752 4.2111189 H 12.252171 V 4.8725752 H 11.590714 V 5.5340314 6.1954876 6.8569438 7.5184001 8.1798563 H 10.929258 10.267802 V 7.5184001 6.8569438 6.1954876 5.5340314 4.8725752 4.2111189 H 9.6063458 V 3.5496627 H 10.267802 V 2.8882065 h 0.661456 v 0.6614562 h 0.661456 v 0.6614562 h 0.661457 V 3.5496627 h 0.661456 V 2.8882065 h 0.661456 v 0.6614562 h 0.661456 V 4.2111189 4.8725752 5.5340314 6.1954876 6.8569438 7.5184001 8.1798563 Z M 7.6219772,5.5340314 V 4.8725752 H 6.960521 6.2990648 5.6376085 V 5.5340314 6.1954876 6.8569438 H 6.2990648 6.960521 7.6219772 8.2834334 V 6.1954876 H 8.9448897 V 6.8569438 7.5184001 H 8.2834334 V 8.1798563 H 7.6219772 6.960521 6.2990648 5.6376085 4.9761523 4.3146961 3.6532398 V 7.5184001 H 4.3146961 V 6.8569438 6.1954876 5.5340314 4.8725752 4.2111189 H 3.6532398 V 3.5496627 H 4.3146961 V 2.8882065 2.2267503 H 3.6532398 V 1.565294 0.9038378 H 4.3146961 4.9761523 V 1.565294 H 5.6376085 V 0.9038378 H 6.2990648 6.960521 7.6219772 8.2834334 V 1.565294 H 8.9448897 V 2.2267503 2.8882065 H 8.2834334 V 2.2267503 H 7.6219772 6.960521 6.2990648 5.6376085 V 2.8882065 3.5496627 H 6.2990648 6.960521 7.6219772 8.2834334 v 0.6614562 0.6614563 0.6614562 z" />
    </g>
  </g>
</svg>
