<?xml version="1.0" encoding="UTF-8" standalone="no"?>
<svg
   xmlns:dc="http://purl.org/dc/elements/1.1/"
   xmlns:cc="http://creativecommons.org/ns#"
   xmlns:rdf="http://www.w3.org/1999/02/22-rdf-syntax-ns#"
   xmlns:svg="http://www.w3.org/2000/svg"
   xmlns="http://www.w3.org/2000/svg"
   xmlns:sodipodi="http://sodipodi.sourceforge.net/DTD/sodipodi-0.dtd"
   xmlns:inkscape="http://www.inkscape.org/namespaces/inkscape"
   width="184mm"
   height="14mm"
   viewBox="0 0 184 14"
   version="1.1"
   id="svg8"
   sodipodi:docname="headscrolls.svg"
   inkscape:version="1.0.1 (3bc2e813f5, 2020-09-07)">
  <defs
     id="defs2" />
  <sodipodi:namedview
     id="base"
     pagecolor="#ffffff"
     bordercolor="#666666"
     borderopacity="1.0"
     inkscape:pageopacity="0.0"
     inkscape:pageshadow="2"
     inkscape:zoom="1"
     inkscape:cx="399.19093"
     inkscape:cy="-100.3173"
     inkscape:document-units="mm"
     inkscape:current-layer="layer2"
     inkscape:document-rotation="0"
     showgrid="false"
     inkscape:window-width="1500"
     inkscape:window-height="1040"
     inkscape:window-x="130"
     inkscape:window-y="0"
     inkscape:window-maximized="0" />
  <metadata
     id="metadata5">
    <rdf:RDF>
      <cc:Work
         rdf:about="">
        <dc:format>image/svg+xml</dc:format>
        <dc:type
           rdf:resource="http://purl.org/dc/dcmitype/StillImage" />
        <dc:title />
      </cc:Work>
    </rdf:RDF>
  </metadata>
  <g
     inkscape:groupmode="layer"
     id="layer2"
     inkscape:label="Слой 2"
     style="display:inline">
    <path
       style="fill:none;stroke:#000000;stroke-width:0.264583px;stroke-linecap:butt;stroke-linejoin:miter;stroke-opacity:1"
       d="M 1.520727,7.3705357 C 1.225462,5.2520446 0.80609404,3.0188517 2.040445,1.4835663 2.547303,0.85313636 3.549252,0.69088679 4.355548,0.75595238 5.27346,0.83002508 6.292852,1.2440471 6.824205,1.9961867 7.389736,2.7967059 7.324068,3.9427213 7.19037,4.9136905 7.013218,6.2002477 6.150935,7.4177827 5.678465,8.5044641 5.198583,9.6081924 5.300489,12.095238 5.300489,12.095238 v 6.425595"
       id="path25"
       sodipodi:nodetypes="caaaascc" />
    <path
       style="fill:none;stroke:#000000;stroke-width:0.264583px;stroke-linecap:butt;stroke-linejoin:miter;stroke-opacity:1"
       d="M 1.412149,7.2327248 C 5.002923,7.0909838 6.150935,7.4177827 6.150935,7.4177827 L 5.678465,8.5044638"
       id="path29"
       sodipodi:nodetypes="ccc" />
    <path
       style="fill:#f1edbe;stroke:#000000;stroke-width:0.264583px;stroke-linecap:butt;stroke-linejoin:miter;stroke-opacity:1;fill-opacity:1"
       d="M 4.744034,0.80180856 C 27.662395,2.2049736 15.635267,1.6704345 27.662395,2.2049736 39.689525,2.7395127 55.458427,2.8731474 55.458427,2.8731474 L 73.766389,2.7395127 81.984927,2.4722431 135.57247,2.7395127 178.87013,2.1381562 c 0,0 1.56879,0.9677079 2.13816,1.6704346 0.67097,0.8281208 1.15855,1.8357727 1.40317,2.8731474 0.18332,0.7774358 0.257,1.821869 0.2722,2.8855295 0.005,0.3234949 0.004,0.6487683 -9.3e-4,0.9688503 -0.0289,1.943714 -0.20447,3.695984 -0.20447,3.695984"
       id="path31"
       sodipodi:nodetypes="cscccccasscc" />
    <path
       style="fill:none;stroke:#000000;stroke-width:0.264583px;stroke-linecap:butt;stroke-linejoin:miter;stroke-opacity:1"
       d="m 182.47826,14.232102 v 0"
       id="path2736"
       sodipodi:nodetypes="cc" />
    <path
       style="font-variation-settings:normal;opacity:1;vector-effect:none;fill:#a7a58f;fill-opacity:1;stroke-width:1.01015;stroke-linecap:butt;stroke-linejoin:miter;stroke-miterlimit:4;stroke-dasharray:none;stroke-dashoffset:0;stroke-opacity:1;stop-color:#000000;stop-opacity:1"
       d="M 1.6255411,6.198237 C 1.1530236,3.8774975 1.7557703,1.6702328 2.9901809,1.2009106 3.9844626,0.82288551 5.3101487,1.1013824 6.2120698,1.877757 6.850239,2.4270937 6.9456689,2.7009479 6.9297177,3.9371828 6.9195286,4.7267457 6.7087274,5.7487478 6.4573261,6.2274036 L 6.0033321,7.0917873 3.8926622,7.0292121 C 1.8011974,6.9672062 1.7805684,6.9596452 1.6255411,6.198237 Z"
       id="path2742" />
    <path
       style="font-variation-settings:normal;opacity:1;vector-effect:none;fill:#f1edbe;fill-opacity:1;stroke-width:0.0892858;stroke-linecap:butt;stroke-linejoin:miter;stroke-miterlimit:4;stroke-dasharray:none;stroke-dashoffset:0;stroke-opacity:1;stop-color:#000000;stop-opacity:1"
       d="M 4.3384299,7.0349128 C 2.3043275,6.9718959 1.9789144,6.929893 1.8125007,6.7088768 1.7166845,6.581622 1.6381091,6.2736925 1.5513652,5.6855095 1.3475439,4.3034661 1.5729895,2.8337303 2.1184307,1.9886576 2.4314664,1.5036597 2.7492998,1.2670569 3.2772367,1.126014 3.4880657,1.0696892 3.5543186,1.06325 3.9368302,1.0619072 4.2642804,1.0607572 4.408224,1.0703472 4.5628534,1.1036152 5.3462071,1.27215 5.9864763,1.6247105 6.4917461,2.1657484 6.7671268,2.4606235 6.8586287,2.6993512 6.9044392,3.2424614 6.9703632,4.024026 6.8550182,5.0417614 6.6169641,5.7789858 6.5518813,5.9805381 6.4460401,6.2171487 6.265966,6.563648 L 6.0081488,7.0597418 5.6693832,7.0626972 C 5.4830621,7.0643111 4.884133,7.0518202 4.3384299,7.0349136 Z"
       id="path2744" />
    <path
       style="font-variation-settings:normal;opacity:1;vector-effect:none;fill:#f1edbe;fill-opacity:1;stroke-width:0.0892858;stroke-linecap:butt;stroke-linejoin:miter;stroke-miterlimit:4;stroke-dasharray:none;stroke-dashoffset:0;stroke-opacity:1;stop-color:#000000;stop-opacity:1"
       d="M 4.6219121,7.0323005 C 2.4208532,6.9670072 1.9931169,6.9168948 1.8262598,6.7047702 1.7313189,6.5840726 1.6314482,6.182933 1.5470429,5.5832724 1.4899405,5.1775846 1.4894886,4.1262929 1.5462492,3.7570523 1.6743358,2.9239482 1.9038248,2.2928868 2.2470312,1.8300045 2.5016778,1.4865624 2.7944202,1.2840605 3.2292823,1.1505412 c 0.2012283,-0.061785 0.235418,-0.064985 0.7075394,-0.066235 0.4051417,-0.00107 0.5307423,0.0068 0.6850819,0.042918 0.7099705,0.1661615 1.3656403,0.5316813 1.8258605,1.017872 C 6.6719643,2.3819483 6.7872325,2.593184 6.8479056,2.8783804 6.90684,3.1554031 6.9058695,4.2742508 6.8463446,4.6737672 6.7273435,5.4725188 6.6079778,5.8543681 6.2651357,6.5330453 L 6.0110016,7.0361185 5.4227564,7.037362 C 5.0992215,7.0380499 4.7388357,7.035772 4.6218994,7.032302 Z"
       id="path2746" />
    <path
       style="font-variation-settings:normal;opacity:1;vector-effect:none;fill:#f1edbe;fill-opacity:1;stroke-width:0.0892858;stroke-linecap:butt;stroke-linejoin:miter;stroke-miterlimit:4;stroke-dasharray:none;stroke-dashoffset:0;stroke-opacity:1;stop-color:#000000;stop-opacity:1"
       d="M 5.8267111,7.2120619 C 5.2194961,7.1044474 3.8776561,7.0396684 2.5082839,7.0518604 l -0.8852053,0.00788 -0.040863,-0.283482 C 1.3257698,4.9972033 1.2906238,4.0746415 1.4458705,3.1972977 1.5605359,2.5492901 1.8875778,1.8450544 2.2401224,1.486996 2.9354611,0.7807817 4.521,0.68506019 5.7085937,1.2775989 6.3530811,1.5991597 6.7599155,2.022536 6.9577699,2.5775664 7.0914279,2.9525089 7.1235107,3.1842921 7.1236644,3.7760738 7.1239007,4.6493501 7.018228,5.2744779 6.7566098,5.947642 6.5770908,6.4095592 6.1516311,7.2613461 6.1024802,7.2572355 6.0807368,7.2554099 5.9566406,7.2350899 5.8267111,7.2120619 Z M 6.2558018,6.6404045 C 6.5355505,6.1105853 6.619258,5.9098253 6.7146041,5.5400373 6.8825425,4.8887067 6.9663154,4.1213479 6.9395158,3.4798436 6.9066585,2.6933263 6.8071884,2.4283753 6.3944278,2.0279339 5.5545654,1.2131375 4.3093233,0.85026052 3.2407043,1.1089048 2.4777188,1.2935748 1.9104233,1.9952914 1.6358649,3.0940126 1.3989519,4.0420848 1.39904,5.2373228 1.6361014,6.3031713 1.762854,6.8730624 1.8968972,6.9453418 2.9328309,7.0024016 c 0.5092909,0.028052 2.2342292,0.084055 2.7521392,0.089353 l 0.3307292,0.00338 z"
       id="path2748" />
    <path
       style="font-variation-settings:normal;opacity:1;vector-effect:none;fill:#f1edbe;fill-opacity:1;stroke-width:0.0892858;stroke-linecap:butt;stroke-linejoin:miter;stroke-miterlimit:4;stroke-dasharray:none;stroke-dashoffset:0;stroke-opacity:1;stop-color:#000000;stop-opacity:1"
       d="M 5.7204055,7.1893104 C 5.5709868,7.1656725 5.3371139,7.1374803 5.2006881,7.1266607 4.9636966,7.1078647 4.9768578,7.1064624 5.4959819,7.0951772 l 0.5433409,-0.011811 0.2896,-0.5787761 C 6.6306761,5.9015251 6.6821839,5.7606371 6.7926379,5.2362057 6.8870047,4.7881547 6.9284559,4.4225736 6.9421222,3.9178155 6.9697971,2.8956772 6.8742568,2.5206527 6.4808074,2.1070131 5.8323935,1.4253248 4.8937752,1.0243318 3.9458305,1.0240297 3.4689934,1.0238777 3.0660783,1.1145283 2.7724394,1.288027 2.5793145,1.4021363 2.2635012,1.7134749 2.1159812,1.935184 1.8043611,2.4035199 1.6017918,3.0093679 1.5003532,3.7764137 1.4449582,4.1952944 1.4446052,5.118636 1.4996653,5.5576176 c 0.096196,0.7668543 0.2145644,1.1510679 0.3897694,1.2651594 0.1719521,0.1119735 0.4798268,0.1632045 1.1969424,0.1991728 0.3258177,0.016341 0.2519143,0.019442 -0.5355579,0.022468 l -0.9135341,0.00351 -0.013139,-0.064965 C 1.5796306,6.7628751 1.4525158,5.7301479 1.4084261,5.230382 1.3680171,4.772334 1.3629691,3.9315331 1.3986604,3.6038713 1.5153826,2.5323256 1.9707813,1.609726 2.5583466,1.2544442 2.7451546,1.1414874 3.025534,1.0334832 3.2975852,0.96968417 3.4807811,0.92672277 3.584741,0.9194856 4.0195056,0.91942779 4.459441,0.91936929 4.5606058,0.92654719 4.775458,0.97306401 5.7652854,1.1873681 6.5159843,1.6891925 6.8482292,2.358662 c 0.078847,0.1588764 0.1763557,0.4479663 0.2231062,0.6614583 0.021804,0.09957 0.030383,0.3350276 0.028835,0.7913878 -0.00183,0.5383231 -0.010914,0.7065713 -0.053039,0.9818407 C 6.945603,5.4567946 6.7824403,5.9321138 6.3826758,6.7290116 6.0941027,7.3042589 6.1595365,7.2587807 5.7203986,7.1893093 Z"
       id="path2750" />
    <path
       style="font-variation-settings:normal;opacity:1;vector-effect:none;fill:#f1edbe;fill-opacity:1;stroke-width:0.0892858;stroke-linecap:butt;stroke-linejoin:miter;stroke-miterlimit:4;stroke-dasharray:none;stroke-dashoffset:0;stroke-opacity:1;stop-color:#000000;stop-opacity:1"
       d="M 5.6967819,7.1885759 C 5.5473632,7.1650862 5.3188058,7.1371189 5.1888764,7.1264276 4.9680874,7.1082587 4.9881256,7.1062161 5.4953512,7.0951772 L 6.0380608,7.0833662 6.3027865,6.5592486 C 6.6622301,5.8476033 6.7845313,5.449984 6.8899958,4.6501446 6.9429154,4.2488035 6.9613309,3.5297922 6.9275092,3.1854867 6.872333,2.6237955 6.7762065,2.4097888 6.4177585,2.0506262 5.7920774,1.4236982 4.9632741,1.0646878 4.0667597,1.0322511 3.1815218,1.0002224 2.6337126,1.2386296 2.175146,1.8554837 1.6553369,2.5547203 1.3819749,3.8135274 1.4665416,5.1185452 c 0.052042,0.803111 0.1850049,1.4390291 0.3371027,1.6122589 0.1720501,0.1959544 0.4375531,0.2486168 1.5189747,0.3012887 0.077958,0.0038 -0.2690415,0.00891 -0.771109,0.011372 l -0.9128501,0.00447 -0.012991,-0.053153 C 1.6093282,6.9279221 1.4830275,5.9711386 1.4284289,5.5005906 1.3976055,5.2349444 1.3870848,4.9510838 1.3864025,4.3666621 1.3855823,3.6630205 1.3905485,3.5594739 1.4374118,3.3036041 1.5925269,2.4566766 1.929006,1.7651875 2.36859,1.3899654 2.6188337,1.1763613 3.0400994,1.0060989 3.4879847,0.93754121 3.8154243,0.88742011 4.4605073,0.90672472 4.7872778,0.97642353 5.6070453,1.1512766 6.3084941,1.5597872 6.6802897,2.0788781 6.7375826,2.1588688 6.8259656,2.3130122 6.876696,2.421419 7.0693939,2.8331977 7.1273845,3.2254922 7.10663,3.9768742 7.0757002,5.0966316 6.9024839,5.7307096 6.3160847,6.8707544 6.1032668,7.2845027 6.1510326,7.2599896 5.6967829,7.1885764 Z"
       id="path2752" />
    <path
       style="font-variation-settings:normal;opacity:1;vector-effect:none;fill:#f1edbe;fill-opacity:1;stroke-width:0.0892858;stroke-linecap:butt;stroke-linejoin:miter;stroke-miterlimit:4;stroke-dasharray:none;stroke-dashoffset:0;stroke-opacity:1;stop-color:#000000;stop-opacity:1"
       d="M 5.6849701,7.1882647 C 5.5290548,7.1644337 5.3004974,7.1363977 5.1770646,7.1259625 4.9728472,7.1086958 5.0013193,7.1059256 5.4933014,7.0951772 L 6.0339616,7.0833662 6.2623507,6.6345196 C 6.6273712,5.9171559 6.7264854,5.6303177 6.841916,4.9572502 6.9566851,4.2880393 6.9777586,3.3592955 6.8887822,2.8917556 6.8169867,2.514494 6.6400532,2.2311611 6.2835801,1.922613 5.7742598,1.4817667 5.1928761,1.1991375 4.5510416,1.0803709 4.2264862,1.0203143 3.6367194,1.0196515 3.3580542,1.0790301 2.9623566,1.1633462 2.7101129,1.2985387 2.4250421,1.5790872 2.050354,1.9478311 1.8102546,2.4066495 1.633863,3.0909918 1.4109817,3.9556999 1.3978568,5.1482021 1.6001927,6.1502366 c 0.092382,0.4575082 0.1898682,0.6344753 0.3972295,0.7210959 0.1811674,0.075679 0.5954477,0.125974 1.3251968,0.1608836 0.077958,0.00373 -0.2699914,0.00879 -0.7732199,0.011247 L 1.634438,7.0479297 1.6221348,6.9947768 C 1.6052438,6.9218071 1.476382,5.9290089 1.431262,5.5242131 1.3810957,5.0741476 1.3600627,3.9938242 1.3945966,3.6409828 1.4610647,2.9618633 1.6669566,2.3270098 1.9762616,1.8474572 2.1804988,1.5308039 2.3795276,1.3433921 2.6729738,1.191411 3.0877635,0.97658369 3.5169925,0.89520045 4.1376315,0.9137071 4.7564003,0.93215808 5.1500207,1.0262194 5.6849714,1.2834669 6.0185329,1.4438702 6.281814,1.6329282 6.5148545,1.8793928 6.708947,2.0846658 6.8159289,2.25641 6.9332962,2.551141 7.0795311,2.9183642 7.1020303,3.0818161 7.101907,3.7760732 7.1017416,4.7606709 7.0046935,5.3128147 6.7010987,6.0566463 6.6004416,6.3032644 6.2562132,7.0122597 6.1653349,7.1601414 6.109516,7.2509723 6.0991973,7.2515766 5.6849714,7.1882642 Z"
       id="path2754" />
    <path
       style="font-variation-settings:normal;opacity:1;vector-effect:none;fill:#f1edbe;fill-opacity:1;stroke-width:0.0892858;stroke-linecap:butt;stroke-linejoin:miter;stroke-miterlimit:4;stroke-dasharray:none;stroke-dashoffset:0;stroke-opacity:1;stop-color:#000000;stop-opacity:1"
       d="M 5.7322173,7.1978715 C 5.6152807,7.179348 5.3920385,7.1499806 5.2361235,7.1326107 l -0.2834822,-0.031581 0.5382037,-0.00293 0.5382041,-0.00293 0.2708365,-0.5468 C 6.5933437,5.9559046 6.7005563,5.6635469 6.7944831,5.1996585 6.8945064,4.7056603 6.9306424,4.3190413 6.9330599,3.7170145 6.9368461,2.7741343 6.8460223,2.4811457 6.4169076,2.0519713 5.7029599,1.3379241 4.6373201,0.94974131 3.6499473,1.0440449 3.175815,1.0893292 2.8787093,1.2008287 2.5714421,1.4487924 1.9793009,1.9266486 1.6009052,2.8062481 1.4895281,3.9637559 c -0.040633,0.4222806 -0.015034,1.4319655 0.04615,1.8203159 0.084748,0.5379143 0.1588138,0.7946646 0.2720777,0.9431615 0.1233532,0.1617245 0.3892454,0.2303301 1.0542047,0.2720068 0.2273763,0.01425 0.455934,0.029249 0.5079056,0.033329 0.051972,0.00408 -0.3172384,0.0092 -0.8204669,0.01139 L 1.634438,7.0479308 1.62241,6.9947779 C 1.6060561,6.9225109 1.5050374,6.1648268 1.4405206,5.6305201 1.3956875,5.2592252 1.3875796,5.0708885 1.3866208,4.3784739 1.3855889,3.6341269 1.3900445,3.5388838 1.4379989,3.2799805 1.5933905,2.441029 1.9727609,1.6856375 2.4012917,1.3618988 2.6522191,1.1723328 2.9532724,1.0430385 3.3355519,0.96065934 3.617063,0.89999517 4.4337976,0.90044716 4.7391736,0.96143722 5.2379219,1.061046 5.8128168,1.3038878 6.1574413,1.5605293 6.3932488,1.7361344 6.6573128,2.0132172 6.7666495,2.1997718 6.8841745,2.4002976 7.0091649,2.7254512 7.0592937,2.9610642 7.0942843,3.1255253 7.1019959,3.273018 7.1019067,3.7760753 7.101694,4.9701452 6.9662194,5.5507392 6.4321629,6.6463319 6.3403269,6.8347295 6.2327573,7.0446836 6.1931193,7.1128963 6.1098586,7.2561796 6.1054422,7.256994 5.7322183,7.1978731 Z"
       id="path2756" />
    <path
       style="font-variation-settings:normal;opacity:1;vector-effect:none;fill:#f1edbe;fill-opacity:1;stroke-width:0.0892858;stroke-linecap:butt;stroke-linejoin:miter;stroke-miterlimit:4;stroke-dasharray:none;stroke-dashoffset:0;stroke-opacity:1;stop-color:#000000;stop-opacity:1"
       d="m 5.8109512,7.2104334 c -0.06064,-0.01166 -0.2785666,-0.041271 -0.484282,-0.065801 L 4.9526413,7.1000317 5.4915139,7.0975976 6.0303868,7.0951634 6.2990614,6.5459167 C 6.5967698,5.9373169 6.7016479,5.6500283 6.7927879,5.1934707 6.8924051,4.6944475 6.9265583,4.3222563 6.9271883,3.7288131 6.9278233,3.1298332 6.9069106,2.9256958 6.8176646,2.6598406 6.7377429,2.4217719 6.6369743,2.2767831 6.3759787,2.0243441 5.5743624,1.2490088 4.4527349,0.89593832 3.3908434,1.0846708 2.9891903,1.1560576 2.7108886,1.3013869 2.4176803,1.5928571 1.946954,2.0607926 1.6825056,2.6903815 1.5105783,3.7524502 c -0.048337,0.2985952 -0.039547,1.5768658 0.013319,1.937128 0.08147,0.5551781 0.1690595,0.8788374 0.2799938,1.0346301 0.1105339,0.1552308 0.4133868,0.2308104 1.1053153,0.2758419 0.2273763,0.014798 0.445303,0.029923 0.484282,0.033612 0.038979,0.00369 -0.3403481,0.00841 -0.8429487,0.010488 -0.8516623,0.00352 -0.9146752,9.79e-4 -0.9264058,-0.03756 C 1.6085183,6.9553015 1.5079925,6.2068926 1.4424738,5.6541439 1.3813132,5.1381662 1.3541003,3.9710709 1.3946043,3.6011567 1.4747976,2.8687709 1.7270043,2.16849 2.0826188,1.6908046 2.2615912,1.4503968 2.4317537,1.3127809 2.7320302,1.1656046 3.1562525,0.95767783 3.5264421,0.89230344 4.1612527,0.91320799 4.7537011,0.93271757 5.1300865,1.0212421 5.6445113,1.2620651 5.9661055,1.4126163 6.186247,1.5615562 6.424172,1.7895554 6.7434878,2.0955502 6.9162015,2.399634 7.0352164,2.865375 c 0.047132,0.1844442 0.060165,0.3075295 0.071415,0.6744647 0.030013,0.9788954 -0.083723,1.7109715 -0.3818411,2.4577561 -0.1192819,0.2988011 -0.4088979,0.9070986 -0.5310047,1.1153 -0.070218,0.1197279 -0.076199,0.1239321 -0.17266,0.1213816 -0.054957,-0.00146 -0.1495361,-0.012181 -0.210176,-0.023844 z"
       id="path2758" />
    <path
       style="font-variation-settings:normal;opacity:1;vector-effect:none;fill:#f1edbe;fill-opacity:1;stroke-width:0.0892858;stroke-linecap:butt;stroke-linejoin:miter;stroke-miterlimit:4;stroke-dasharray:none;stroke-dashoffset:0;stroke-opacity:1;stop-color:#000000;stop-opacity:1"
       d="M 5.791276,7.209552 C 5.7198149,7.19754 5.501888,7.1680551 5.306994,7.1440333 L 4.9526413,7.1003572 5.4915486,7.0977643 6.0304559,7.0951714 6.28723,6.5695483 C 6.6469684,5.8331546 6.7628291,5.4706178 6.8704439,4.7446318 6.9322813,4.3274673 6.9322667,3.1005668 6.8704214,2.8369487 6.8063952,2.5640412 6.6906709,2.3540691 6.4820726,2.1323275 6.0103967,1.6309333 5.3651719,1.2653049 4.6963024,1.1203889 4.2354403,1.0205393 3.6670507,1.0152737 3.2683477,1.1071601 2.6100723,1.2588686 2.0566616,1.8425945 1.757089,2.701204 1.5849548,3.1945601 1.4950028,3.7344275 1.4756562,4.3902852 1.4469079,5.3648718 1.5849133,6.385203 1.787673,6.6971565 1.9068479,6.8805112 2.1830399,6.9508533 3.0155132,7.0098692 l 0.4488468,0.03182 -0.9138192,0.00312 C 1.6992574,7.0477186 1.6358511,7.0451019 1.6240004,7.0065904 1.6170048,6.9838521 1.5840581,6.7632682 1.5507876,6.5164025 1.4142295,5.5031444 1.3942476,5.2742245 1.3805531,4.5661254 1.3661465,3.8212164 1.3858421,3.5013132 1.4701013,3.1116608 1.624219,2.3989482 1.9926087,1.686751 2.360407,1.3904593 2.6325624,1.1712155 3.0828071,0.99122951 3.511607,0.93026499 3.8933539,0.87599029 4.552826,0.9096259 4.9214588,1.0021727 c 0.6131666,0.1539381 1.1175468,0.4172625 1.4969858,0.781539 0.3231001,0.3101893 0.4908925,0.6029521 0.619938,1.0816636 0.058293,0.2162469 0.060883,0.2530919 0.062339,0.8870762 0.00164,0.7125554 -0.020778,0.9801489 -0.1193602,1.4249601 C 6.8599151,5.7253899 6.5425392,6.5098109 6.2126035,7.0774609 6.1206452,7.2356736 6.1191447,7.2368981 6.0205631,7.234158 5.9659163,7.2326499 5.862737,7.2215665 5.791276,7.2095544 Z"
       id="path2760" />
    <path
       style="font-variation-settings:normal;opacity:1;vector-effect:none;fill:#f1edbe;fill-opacity:1;stroke-width:0.0892858;stroke-linecap:butt;stroke-linejoin:miter;stroke-miterlimit:4;stroke-dasharray:none;stroke-dashoffset:0;stroke-opacity:1;stop-color:#000000;stop-opacity:1"
       d="M 5.6967819,7.1991558 C 5.5863419,7.1816457 5.3737304,7.1524722 5.2243117,7.134326 L 4.9526413,7.1013335 5.491851,7.0982564 6.0310604,7.0951793 6.2741948,6.5931798 C 6.5325361,6.0597824 6.6304959,5.8217799 6.709309,5.5360276 6.7880611,5.2504966 6.8789741,4.7153197 6.8898955,4.4729696 L 6.9000079,4.248546 6.867625,4.5084047 C 6.7972139,5.0734261 6.681928,5.5866625 6.5472834,5.9345213 6.5051969,6.0432529 6.367077,6.3355939 6.2403501,6.5841678 L 6.0099374,7.0361206 5.1778221,7.0321995 C 4.3171335,7.0281434 3.3073764,6.9948141 2.7320299,6.9514727 2.1722232,6.9093021 1.9362955,6.8446633 1.8247935,6.7029112 1.7183998,6.5676538 1.5688779,5.894815 1.5181737,5.3231433 1.5035899,5.1587008 1.4974277,5.1322782 1.4950438,5.2239483 1.4845531,5.6274752 1.6335807,6.4035034 1.7695353,6.6532968 1.8993444,6.8917986 2.0765485,6.9373117 3.2044998,7.0218529 3.4025253,7.0366961 3.2469162,7.0421147 2.5505392,7.0446309 1.6990214,7.047708 1.635881,7.0451072 1.62441,7.0065918 1.5850392,6.8743744 1.4304106,5.6202968 1.3979312,5.1697897 1.3665976,4.7351793 1.3671212,3.8457023 1.3988837,3.5566281 1.4748699,2.8650006 1.7377263,2.1465849 2.0819264,1.6897969 2.4760394,1.1667695 3.1122822,0.90622706 3.9958905,0.90602558 4.6969784,0.90586564 5.2017793,1.0261542 5.7919335,1.3340026 6.3364224,1.6180302 6.7430518,2.0435678 6.9278328,2.5227211 7.0926913,2.9502131 7.099313,2.997845 7.1004319,3.7642646 7.1022311,4.9898429 6.9733033,5.5440738 6.427297,6.6581448 6.1352872,7.2539618 6.147166,7.2375648 6.010142,7.2339583 5.9482345,7.2323179 5.8072232,7.2166678 5.6967832,7.1991584 Z M 1.5489175,3.7524502 C 1.6579457,2.9685472 1.9028014,2.2942783 2.2470397,1.8300045 2.5025623,1.4853809 2.7987038,1.281028 3.2292907,1.1522006 3.4120958,1.0975071 3.5015335,1.0866789 3.8895833,1.072259 L 4.3384299,1.0555799 3.9641646,1.0515691 C 3.2277842,1.0436777 2.7975061,1.2014438 2.3878694,1.6295346 1.7870351,2.257437 1.4570327,3.3582366 1.4720711,4.6843952 c 0.00382,0.3365712 0.00425,0.3334004 0.020659,-0.152369 0.00922,-0.2728516 0.034503,-0.6236608 0.056187,-0.779576 z M 6.9022182,3.096995 C 6.888063,2.9573744 6.855269,2.774465 6.8293441,2.6905299 6.6973937,2.2633243 6.1533167,1.7371061 5.5102771,1.41476 5.2565293,1.28756 4.7961945,1.1283991 4.6219121,1.1076074 4.532144,1.0968981 4.5548236,1.1072952 4.7164062,1.1509303 5.4092557,1.338029 5.9115156,1.6183616 6.372337,2.0751756 6.5862936,2.2872716 6.6504066,2.367608 6.7211207,2.5122159 6.8523525,2.7805803 6.8801189,2.9587335 6.8978524,3.6461446 l 0.015539,0.6023993 0.00728,-0.4488466 C 6.9246785,3.5528316 6.9163732,3.2366156 6.9022153,3.096995 Z M 4.4624533,1.0785209 c -0.022738,-0.00594 -0.059945,-0.00594 -0.082682,0 -0.022738,0.00594 -0.00414,0.010803 0.041341,0.010803 0.045475,0 0.064079,-0.00486 0.041341,-0.010803 z"
       id="path2762" />
    <path
       style="font-variation-settings:normal;opacity:1;vector-effect:none;fill:#f1edbe;fill-opacity:1;stroke-width:0.0892858;stroke-linecap:butt;stroke-linejoin:miter;stroke-miterlimit:4;stroke-dasharray:none;stroke-dashoffset:0;stroke-opacity:1;stop-color:#000000;stop-opacity:1"
       d="M 5.8385229,7.2191707 C 5.8060405,7.2129477 5.593429,7.1836485 5.3660527,7.1540602 L 4.9526413,7.100263 5.4910474,7.097723 6.0294534,7.095183 6.265199,6.6067201 C 6.3948591,6.3380656 6.5372306,6.0271209 6.5815803,5.9157324 6.7276462,5.5488715 6.8613097,4.9237267 6.8875336,4.4847851 L 6.9002363,4.2721733 6.8658116,4.5438438 C 6.822906,4.882444 6.7284489,5.3579127 6.650981,5.6252387 6.5686819,5.9092361 6.4781301,6.1201373 6.22778,6.610901 L 6.0108637,7.0361243 5.1628353,7.0319571 C 4.2898177,7.0276629 3.280772,6.994237 2.7202194,6.9510396 2.1706468,6.908688 1.9353788,6.8434928 1.8247948,6.7029078 1.723819,6.5745378 1.6119108,6.0990053 1.5277688,5.4407527 l -0.034627,-0.2708918 0.01243,0.2126118 c 0.024701,0.422508 0.1266891,0.9651261 0.2238504,1.1909842 0.1278488,0.2971922 0.3301408,0.3648747 1.2903182,0.4317119 l 0.4446193,0.03095 -0.9079349,0.00619 C 1.8872973,7.0468711 1.6440352,7.0413043 1.631554,7.0210981 1.5934807,6.9594943 1.4305567,5.663104 1.3944461,5.1344268 1.3788357,4.9058956 1.3731021,4.4807637 1.3805846,4.106804 1.3945916,3.406831 1.430572,3.1564204 1.5861936,2.6758683 1.7532713,2.1599404 2.0869435,1.6051531 2.3591124,1.3907586 2.7769974,1.0615795 3.305391,0.90625289 4.0083193,0.90595745 4.7022907,0.90566641 5.1996557,1.0250455 5.7921674,1.3341246 6.3418247,1.620849 6.7412442,2.0388848 6.9278304,2.5227195 7.0926526,2.9501174 7.099299,2.9978958 7.1005454,3.764263 7.1021858,4.7650309 7.0247441,5.2402253 6.7425671,5.9612497 6.6246494,6.2625543 6.284218,6.980261 6.1850982,7.1365194 6.1240964,7.2326864 6.1166931,7.2367838 6.0094961,7.2337022 5.9479424,7.2319294 5.8710042,7.2253942 5.8385218,7.2191712 Z M 1.4857138,4.4089851 c -0.00456,-0.088243 -0.00832,-0.022244 -0.00836,0.1466647 -4.13e-5,0.1689081 0.00369,0.2411063 0.00829,0.1604412 0.0046,-0.080666 0.00463,-0.2188631 7.52e-5,-0.3071059 z M 1.5536726,3.7407347 C 1.6229805,3.203041 1.7767092,2.6730814 1.9819893,2.264169 2.3185692,1.593712 2.7409043,1.2498213 3.4053013,1.1052222 L 3.5588541,1.0718031 3.4324926,1.084428 C 2.8511435,1.142511 2.3046508,1.572919 1.9565952,2.2468188 1.7101847,2.7239148 1.4805291,3.6505395 1.495768,4.1061833 1.499348,4.2132091 1.500518,4.2156004 1.50768,4.1304273 1.51205,4.0784553 1.532744,3.9030942 1.553672,3.7407355 Z M 6.9191923,3.4630622 c -0.00425,-0.126681 -0.00772,-0.023032 -0.00772,0.2303293 0,0.2533621 0.00347,0.3570102 0.00772,0.2303293 0.00425,-0.1266812 0.00425,-0.3339775 0,-0.4606586 z M 6.8660391,2.8583437 C 6.8446544,2.7524276 6.7966897,2.6019853 6.7594512,2.5240277 6.5448244,2.0747173 5.88171,1.5448092 5.1962045,1.2748056 5.0270791,1.2081915 4.5881761,1.0852314 4.573152,1.1002556 c -0.00498,0.00498 0.093789,0.037962 0.2194878,0.073292 0.6789811,0.1908412 1.2142861,0.5053919 1.6630618,0.9772324 0.2609091,0.2743185 0.410586,0.6155542 0.4260366,0.9712859 l 0.00378,0.087044 0.0097,-0.079095 c 0.00534,-0.043502 -0.0078,-0.1657541 -0.029181,-0.2716705 z M 4.4506418,1.0791598 c -0.01624,-0.00655 -0.042818,-0.00655 -0.059059,0 -0.01624,0.00655 -0.00295,0.011915 0.029529,0.011915 0.032482,0 0.045771,-0.00536 0.02953,-0.011915 z M 4.1209924,1.0536629 c -0.093605,-0.00447 -0.2530639,-0.0045 -0.3543528,-6.03e-5 -0.1012891,0.00444 -0.024704,0.0081 0.1701906,0.00813 0.1948939,3.3e-5 0.277767,-0.0036 0.1841622,-0.00807 z"
       id="path2764" />
    <path
       style="font-variation-settings:normal;opacity:1;vector-effect:none;fill:#f1edbe;fill-opacity:1;stroke-width:0.0892858;stroke-linecap:butt;stroke-linejoin:miter;stroke-miterlimit:4;stroke-dasharray:none;stroke-dashoffset:0;stroke-opacity:1;stop-color:#000000;stop-opacity:1"
       d="M 5.8385229,7.2191707 C 5.8060405,7.2129477 5.593429,7.1836485 5.3660527,7.1540602 L 4.9526413,7.100263 5.4903423,7.097723 6.0280437,7.095183 6.2533382,6.6286186 c 0.258757,-0.5358625 0.360312,-0.781195 0.447385,-1.0807755 0.067787,-0.233226 0.1787224,-0.8457248 0.1746959,-0.9645357 -0.0014,-0.041194 -0.016558,0.020775 -0.033692,0.1377128 C 6.7277457,5.498902 6.5804164,5.9452189 6.1944835,6.6817715 L 6.0088124,7.0361243 5.6815268,7.0437125 C 5.0148602,7.0591669 2.9157494,6.9833346 2.4527447,6.9270686 2.3381161,6.9131383 2.2392702,6.9068015 2.2330871,6.9129822 c -0.016018,0.016018 0.3841213,0.06194 0.8532969,0.097929 l 0.4015996,0.030806 -0.9246954,0.00311 C 1.7438392,7.0475805 1.6369766,7.0437149 1.6243925,7.0109304 1.6085043,6.9695255 1.4941977,6.138183 1.4297201,5.5950894 1.3754826,5.1382498 1.3670606,3.6430018 1.4171444,3.3626676 1.5701805,2.5061032 1.9301064,1.7467807 2.3478983,1.3990907 2.631411,1.1631491 3.0779377,0.98579653 3.5325268,0.92857713 3.8513719,0.88844391 4.5276011,0.91165517 4.810899,0.97245693 5.8304198,1.1912674 6.6431872,1.7846198 6.9252412,2.5160104 7.0815475,2.9213265 7.0959073,3.0123603 7.1035085,3.6461498 7.1187988,4.9211007 6.9915548,5.4963797 6.4425158,6.6345241 6.3359639,6.8554038 6.2201256,7.0813037 6.1850979,7.1365236 6.1240961,7.2326907 6.1166928,7.236788 6.0094958,7.2337064 5.9479421,7.2319337 5.8710039,7.2253985 5.8385216,7.2191755 Z M 2.1178198,6.8731441 C 1.9763312,6.828397 1.8794847,6.7724353 1.8261127,6.7045831 1.7334003,6.5867189 1.6433319,6.2425121 1.5636072,5.70139 1.5396782,5.5389785 1.5191103,5.443303 1.5178999,5.4887783 c -0.00583,0.219189 0.1465781,0.9634413 0.2310227,1.1281134 0.024961,0.048674 0.070335,0.1117566 0.1008338,0.1401842 0.067685,0.063089 0.2507933,0.1484636 0.3153106,0.1470139 0.025985,-5.821e-4 0.00473,-0.01451 -0.047247,-0.030946 z M 1.5085048,5.2705364 c -0.00565,-0.029386 -0.010488,-0.010906 -0.01075,0.041066 -2.622e-4,0.051971 0.00436,0.076014 0.010274,0.053428 0.00591,-0.022587 0.00613,-0.065109 4.76e-4,-0.094494 z m -0.023244,-0.803475 c -0.00524,-0.042227 -0.00953,-0.00768 -0.00953,0.076777 0,0.084454 0.00429,0.1190035 0.00953,0.076776 0.00524,-0.042227 0.00524,-0.1113255 0,-0.153553 z m 5.4089794,-0.082682 c -0.00594,-0.022738 -0.010803,-0.00414 -0.010803,0.041341 0,0.045475 0.00486,0.064079 0.010803,0.041341 0.00594,-0.022738 0.00594,-0.059945 0,-0.082682 z M 1.5522399,3.7288268 C 1.6770182,2.8283455 1.9730067,2.1082188 2.4189543,1.6201486 2.5345997,1.4935797 2.5412778,1.4827479 2.4515517,1.5672754 2.0997834,1.8986634 1.8251483,2.4181312 1.6550723,3.0738016 1.5738307,3.3870024 1.4900797,3.9118103 1.4958767,4.0713678 l 0.00386,0.1063056 0.00825,-0.094494 c 0.00453,-0.051972 0.02445,-0.2114304 0.044255,-0.3543525 z M 6.9177183,3.5708444 c -0.00754,-0.018846 -0.013139,-0.013248 -0.014272,0.014272 -0.00103,0.024903 0.00456,0.038856 0.012406,0.031006 0.00785,-0.00785 0.00869,-0.028226 0.00185,-0.045279 z M 6.8918281,3.0147953 C 6.8722788,2.8239841 6.7833859,2.5486964 6.6969794,2.4113783 6.4690586,2.0491644 5.9541548,1.6263536 5.4511306,1.388355 5.2273357,1.2824698 4.8708604,1.1564132 4.728218,1.132719 4.629155,1.116264 4.653522,1.125549 4.9998882,1.2362059 5.4979951,1.3953453 5.9630017,1.6737415 6.3444919,2.041211 c 0.342864,0.3302626 0.4850067,0.5957934 0.5243132,0.9794467 0.00862,0.084159 0.020992,0.1530164 0.027489,0.1530164 0.0065,0 0.00449,-0.071495 -0.00447,-0.1588788 z M 2.8619604,1.2943209 c 0.071461,-0.036095 0.2202895,-0.095346 0.3307292,-0.1316687 0.11044,-0.036322 0.1795388,-0.066305 0.1535528,-0.066628 -0.1443564,-0.00179 -0.6414085,0.226477 -0.7398607,0.3397806 -0.026361,0.030336 -0.011912,0.025267 0.042967,-0.015075 0.045475,-0.03343 0.1411505,-0.090314 0.2126117,-0.1264089 z M 3.5057012,1.0791598 c -0.01624,-0.00655 -0.042817,-0.00655 -0.059059,0 -0.01624,0.00655 -0.00295,0.011915 0.029529,0.011915 0.032482,0 0.045771,-0.00536 0.02953,-0.011915 z m 0.5440534,-0.02524 c -0.054828,-0.00495 -0.1505029,-0.00501 -0.2126115,-1.309e-4 -0.062108,0.00488 -0.017248,0.00894 0.099687,0.00901 0.1169366,7.2e-5 0.1677524,-0.00392 0.1129245,-0.00888 z"
       id="path2766" />
    <path
       style="font-variation-settings:normal;opacity:1;vector-effect:none;fill:#a8a584;fill-opacity:1;stroke-width:0.0892858;stroke-linecap:butt;stroke-linejoin:miter;stroke-miterlimit:4;stroke-dasharray:none;stroke-dashoffset:0;stroke-opacity:1;stop-color:#000000;stop-opacity:1"
       d="m 5.4251114,7.1683972 -0.4724701,-0.061408 0.535419,-0.00634 0.535419,-0.00634 L 6.1350898,6.864418 C 6.4754684,6.1633107 6.5502137,5.9979559 6.6287822,5.772242 6.7171287,5.5184365 6.841327,4.9511206 6.8640915,4.6973897 6.8710845,4.6194321 6.8509285,4.7019987 6.8192984,4.8808735 6.6952863,5.582173 6.5850842,5.9080553 6.2422527,6.5872706 L 6.0156993,7.0361174 5.649535,7.0436289 c -0.5746128,0.011787 -2.1284581,-0.03811 -3.1183037,-0.1001334 -0.1636808,-0.010255 -0.1672921,-0.00954 -0.04741,0.00935 0.071371,0.011247 0.3211896,0.034587 0.5551525,0.051862 l 0.4253867,0.03141 -0.9080391,0.00619 C 2.0568995,7.0457149 1.64068,7.0404047 1.6313889,7.0304987 1.5987716,6.9957391 1.437502,5.7361393 1.3977039,5.2052976 1.3666497,4.7910868 1.3669188,3.8603896 1.3981801,3.5482487 1.4422714,3.1080453 1.5663572,2.6571956 1.7533544,2.2577722 2.0351846,1.6557872 2.2699563,1.3881197 2.7085383,1.1687501 2.9387155,1.0536202 3.2263067,0.96830628 3.5174789,0.92877792 3.8207887,0.8876018 4.5274461,0.91141623 4.8108976,0.97236633 5.7730914,1.1792652 6.5758579,1.7334422 6.8756419,2.3977298 7.0625793,2.8119628 7.1136785,3.1003901 7.1139963,3.7431151 7.1144461,4.6712004 7.0145693,5.2709524 6.7451962,5.9575392 6.624741,6.2645583 6.2474594,7.0562133 6.1692584,7.1660363 c -0.062471,0.087733 -0.086722,0.08781 -0.7441496,0.00235 z M 2.3249753,6.914317 c -0.015994,-0.00647 -0.047886,-0.00687 -0.070871,-8.731e-4 -0.022984,0.00599 -0.0099,0.011285 0.02908,0.011766 0.038979,4.763e-4 0.057785,-0.00442 0.041791,-0.01089 z M 2.0705729,6.8589421 c -0.064943,-0.027907 -0.1022419,-0.027907 -0.059059,0 0.019489,0.012594 0.051381,0.022315 0.07087,0.021601 0.023365,-8.467e-4 0.019341,-0.00822 -0.011811,-0.021601 z M 1.8741312,6.7467305 C 1.8087783,6.6838866 1.7671506,6.613041 1.7308879,6.5029455 1.6771698,6.3398563 1.5783228,5.8594256 1.5489585,5.6187077 1.5394494,5.5407501 1.5271171,5.4902869 1.5215516,5.5065675 c -0.013507,0.039524 0.055789,0.4849344 0.1166797,0.749975 0.062977,0.2741221 0.1346041,0.4345244 0.2298046,0.5146304 0.1100395,0.092592 0.1134753,0.078815 0.0061,-0.024442 z M 1.5079343,5.295361 c -0.00754,-0.018846 -0.013139,-0.013248 -0.014272,0.014272 -0.00103,0.024903 0.00456,0.038856 0.012406,0.031006 0.00785,-0.00785 0.00869,-0.028226 0.00185,-0.045278 z M 6.8936029,4.3961909 c -0.00655,-0.01624 -0.011914,-0.00295 -0.011914,0.029529 0,0.032482 0.00536,0.04577 0.011914,0.029529 0.00655,-0.01624 0.00655,-0.042817 0,-0.059059 z M 1.5084688,3.9709677 c -0.00563,-0.029234 -0.010237,-0.00532 -0.010237,0.053153 0,0.058468 0.00461,0.082387 0.010237,0.053153 0.00563,-0.029234 0.00563,-0.077072 0,-0.106306 z M 1.5879536,3.5044033 C 1.6911813,2.9062148 1.9088114,2.31235 2.1569853,1.9516418 2.19792,1.892145 2.2197347,1.8506831 2.2054617,1.8595042 2.1562299,1.8899312 1.95768,2.2316344 1.8669557,2.4420716 1.81692,2.5581303 1.7435265,2.7622465 1.7038588,2.8956632 1.6228831,3.1680142 1.513561,3.7279008 1.5189598,3.8426112 l 0.00354,0.075204 0.00929,-0.07087 c 0.00511,-0.038979 0.030383,-0.1931221 0.056168,-0.342541 z M 6.8942419,3.0378392 c -0.00594,-0.022738 -0.010803,-0.00414 -0.010803,0.041341 0,0.045475 0.00486,0.064079 0.010803,0.041341 0.00594,-0.022738 0.00594,-0.059945 0,-0.082682 z M 6.842092,2.7552872 C 6.7530668,2.4490512 6.5624821,2.1814101 6.23755,1.9063199 6.0265578,1.7276921 5.7184563,1.519198 5.5122086,1.4154773 5.3668624,1.3423835 5.0358752,1.2122776 5.0004271,1.2143041 4.9871371,1.2150634 5.0530366,1.245886 5.146869,1.282798 5.6485058,1.4801328 6.0102274,1.7135913 6.3727685,2.0740052 6.666738,2.36625 6.785288,2.562344 6.8377702,2.8431667 6.853378,2.9266737 6.8695472,2.9713806 6.8737049,2.9425159 6.8778615,2.9136512 6.8636375,2.829398 6.842092,2.7552872 Z M 2.2743859,1.7857929 c 0.029385,-0.037468 0.028549,-0.038304 -0.00892,-0.00892 -0.039351,0.030861 -0.051865,0.05026 -0.032422,0.05026 0.00491,0 0.023508,-0.018603 0.041341,-0.041341 z m 0.138728,-0.1594587 c 0.044076,-0.045475 0.074823,-0.082682 0.068327,-0.082682 -0.0065,0 -0.047874,0.037207 -0.091951,0.082682 -0.044076,0.045475 -0.074824,0.082682 -0.068327,0.082682 0.0065,0 0.047874,-0.037207 0.091951,-0.082682 z M 3.1218191,1.185353 C 3.2192661,1.149999 3.2795052,1.120478 3.2556837,1.119751 3.1667877,1.117041 2.6729725,1.3444687 2.6729725,1.3881237 c 0,0.00508 0.061126,-0.023997 0.135835,-0.064623 C 2.8835165,1.2828737 3.0243723,1.2207079 3.1218191,1.185353 Z M 4.8935826,1.177483 C 4.8481076,1.15997 4.7949546,1.145642 4.7754649,1.145642 c -0.019489,0 0.00177,0.014328 0.047247,0.031841 0.045475,0.017513 0.098628,0.031841 0.1181174,0.031841 0.019489,0 -0.00177,-0.014328 -0.047247,-0.031841 z M 4.0021198,1.0545524 c -0.029055,-0.00561 -0.082208,-0.00575 -0.1181176,-3.228e-4 -0.035909,0.00543 -0.012136,0.010018 0.052828,0.010195 0.064965,1.774e-4 0.094345,-0.00427 0.06529,-0.00987 z"
       id="path2768" />
    <path
       style="font-variation-settings:normal;opacity:1;vector-effect:none;fill:#bab793;fill-opacity:1;stroke-width:0.0892858;stroke-linecap:butt;stroke-linejoin:miter;stroke-miterlimit:4;stroke-dasharray:none;stroke-dashoffset:0;stroke-opacity:1;stop-color:#000000;stop-opacity:1"
       d="m 5.5077937,7.1660477 -0.2952938,-0.0412 0.2952938,-0.00323 c 0.1624119,-0.00177 0.3500472,-0.00981 0.4169675,-0.017849 L 6.0464351,7.0891531 6.1411596,6.8854597 C 6.1932582,6.7734282 6.3151285,6.511677 6.4119826,6.3037902 6.5933,5.9146127 6.6826051,5.6701337 6.7485276,5.3824732 6.8002238,5.1568908 6.8783168,4.7319779 6.8763587,4.6869286 6.8727815,4.6046493 6.8303947,4.7589246 6.7598986,5.1108027 6.6469022,5.6748179 6.4806894,6.1117059 6.1144082,6.8074645 L 5.9965384,7.0313605 4.9194374,7.0166629 C 3.9491153,7.0034205 3.6066027,6.9917365 2.6611607,6.9396143 c -0.1559152,-0.0086 -0.2759765,-0.0077 -0.2668026,0.00198 0.00917,0.00969 0.1526865,0.031017 0.3189173,0.047386 l 0.3022378,0.029762 -0.6884265,0.00277 -0.6884268,0.00277 L 1.6256451,6.97114 C 1.6092859,6.9043303 1.5317214,6.3368538 1.4650038,5.7958704 1.393528,5.2163024 1.3736707,3.7819422 1.4316499,3.3865867 1.5234368,2.7606995 1.8144184,2.0339929 2.1301899,1.6420309 2.3612904,1.3551697 2.7294891,1.132629 3.1808778,1.0069913 3.4118551,0.94270215 3.4307839,0.94125387 4.0313243,0.94192338 4.6186683,0.9425769 4.6566106,0.9453918 4.8987187,1.0062468 5.5683711,1.174567 6.0914915,1.4627071 6.4964353,1.8862857 6.68395,2.0824296 6.7302513,2.1483138 6.8416244,2.377473 c 0.070745,0.1455622 0.15137,0.3550185 0.1791677,0.4654582 0.064036,0.2544136 0.088313,0.7385045 0.066378,1.3235906 C 7.0619424,4.8394365 6.9552545,5.3856945 6.7447369,5.919829 6.6333791,6.2023714 6.2670399,6.9831161 6.1849365,7.112881 L 6.1214125,7.2132811 5.9622503,7.2102569 C 5.8747107,7.20859 5.6702056,7.1886934 5.5077937,7.1660334 Z M 2.3249753,6.914317 c -0.015994,-0.00647 -0.047886,-0.00687 -0.070871,-8.731e-4 -0.022984,0.00599 -0.0099,0.011285 0.02908,0.011766 0.038979,4.763e-4 0.057785,-0.00442 0.041791,-0.01089 z M 2.0941965,6.8589421 c -0.00803,-0.012994 -0.035861,-0.023625 -0.061847,-0.023625 -0.025985,0 -0.040677,0.010631 -0.032647,0.023625 0.00803,0.012994 0.035861,0.023625 0.061847,0.023625 0.025985,0 0.040677,-0.010631 0.032647,-0.023625 z M 1.9287007,6.7879266 C 1.9051131,6.7618599 1.8803909,6.7459558 1.8737652,6.7525812 1.8509978,6.7753486 1.7299647,6.4689555 1.6824837,6.2683543 1.6563428,6.1579143 1.6136928,5.9411909 1.5877051,5.7867462 1.5617178,5.6323018 1.5348218,5.5003054 1.5279376,5.4934212 c -0.025834,-0.025834 -0.011009,0.1636691 0.032249,0.4122282 0.089835,0.5161807 0.1628889,0.7320902 0.2910774,0.860279 0.077322,0.077322 0.1448697,0.096511 0.077437,0.021997 z M 1.5079343,5.295361 c -0.00754,-0.018846 -0.013139,-0.013248 -0.014272,0.014272 -0.00103,0.024903 0.00456,0.038856 0.012406,0.031006 0.00785,-0.00785 0.00869,-0.028226 0.00185,-0.045278 z M 6.8936029,4.3961909 c -0.00655,-0.01624 -0.011914,-0.00295 -0.011914,0.029529 0,0.032482 0.00536,0.04577 0.011914,0.029529 0.00655,-0.01624 0.00655,-0.042817 0,-0.059059 z M 1.5080812,3.9827795 c -0.00594,-0.022738 -0.010803,-0.00414 -0.010803,0.041341 0,0.045475 0.00486,0.064079 0.010803,0.041341 0.00594,-0.022738 0.00594,-0.059945 0,-0.082682 z M 1.621303,3.4134821 C 1.7228083,2.8830497 1.9253267,2.3399725 2.1666172,1.9511575 c 0.034268,-0.05522 0.050944,-0.1003999 0.037056,-0.1003999 -0.041114,0 -0.2794157,0.4258231 -0.3835361,0.6853446 C 1.672888,2.9031237 1.5115504,3.5912398 1.5183327,3.8233209 l 0.00276,0.094494 0.019931,-0.094494 C 1.5519877,3.7713491 1.5881131,3.5869218 1.621303,3.4134821 Z M 6.8936029,3.0496507 c -0.00655,-0.01624 -0.011914,-0.00295 -0.011914,0.02953 0,0.032482 0.00536,0.045771 0.011914,0.029529 0.00655,-0.01624 0.00655,-0.042818 0,-0.059059 z M 6.8422997,2.7306545 C 6.7729203,2.48893 6.6519793,2.3046685 6.3962018,2.0509967 6.1613937,1.8181217 5.7915977,1.5447759 5.5387267,1.4171685 5.3463354,1.3200813 5.0560481,1.2099958 5.0142551,1.2182733 c -0.020894,0.00414 0.025794,0.032994 0.1037508,0.064124 0.4785672,0.191101 0.8781314,0.4472144 1.2173291,0.7802856 0.3227109,0.3168823 0.3966395,0.4360714 0.4986205,0.8038855 0.022429,0.0809 0.031605,0.093584 0.038392,0.053074 0.00491,-0.029277 -0.00862,-0.1143223 -0.030048,-0.1889879 z M 2.2905668,1.7813635 c 0.00591,-0.017718 -0.00295,-0.026576 -0.020672,-0.020671 -0.017052,0.00568 -0.035657,0.024288 -0.041341,0.041341 -0.00591,0.017718 0.00295,0.026576 0.020672,0.020671 0.017052,-0.00568 0.035657,-0.024288 0.041341,-0.041341 z M 2.4246894,1.6383924 c 0.037214,-0.038843 0.060353,-0.077933 0.05142,-0.086866 -0.01728,-0.017279 -0.15749,0.1058346 -0.15749,0.1382864 0,0.037362 0.039233,0.018342 0.10607,-0.05142 z M 3.086384,1.2131768 c 0.1731325,-0.06702 0.2228215,-0.1071719 0.1063056,-0.085903 -0.1079728,0.01971 -0.5197171,0.2180372 -0.5197171,0.2503354 0,0.01374 0.061126,-0.00529 0.135835,-0.042292 0.074709,-0.037 0.1996188,-0.091964 0.2775765,-0.1221404 z M 4.9172059,1.1774875 C 4.8847238,1.158919 4.8315709,1.1437265 4.7990885,1.1437265 h -0.059059 l 0.059059,0.033761 c 0.032482,0.018569 0.085635,0.033761 0.1181174,0.033761 h 0.059059 z M 3.9902586,1.0549505 c -0.022585,-0.00591 -0.065108,-0.00613 -0.094494,-4.763e-4 -0.029385,0.00565 -0.010906,0.010488 0.041066,0.010751 0.051972,2.622e-4 0.076014,-0.00436 0.053428,-0.010275 z"
       id="path2772" />
    <path
       style="font-variation-settings:normal;opacity:1;vector-effect:none;fill:#f1edbe;fill-opacity:1;stroke-width:0.0892858;stroke-linecap:butt;stroke-linejoin:miter;stroke-miterlimit:4;stroke-dasharray:none;stroke-dashoffset:0;stroke-opacity:1;stop-color:#000000;stop-opacity:1"
       d="M 6.0117855,7.2126292 C 6.0009456,7.202276 5.8804546,7.1878774 5.7440288,7.1806331 5.607603,7.1733888 5.4906667,7.1669806 5.4841704,7.1663932 c -0.0065,-5.821e-4 0.00414,-0.011374 0.023625,-0.023969 0.019489,-0.012594 0.088588,-0.023225 0.1535528,-0.023625 0.064965,-3.969e-4 0.1324161,-0.00978 0.1498918,-0.020862 0.06706,-0.042501 -0.1159164,-0.05827 -0.7286678,-0.062798 -0.3443126,-0.00254 -0.8102256,-0.00614 -1.0353625,-0.00799 -0.2251368,-0.00185 -0.4209512,0.00381 -0.4351435,0.012583 -0.016507,0.010202 -0.020368,0.00177 -0.010718,-0.023363 0.0083,-0.021622 0.00567,-0.03931 -0.00583,-0.03931 -0.011501,0 -0.025289,0.013126 -0.030637,0.02917 -0.00679,0.020378 -0.05895,0.026959 -0.1730592,0.021836 -0.2197558,-0.00987 -0.2242463,-0.026645 -0.00818,-0.030538 0.1732675,-0.00312 0.1738998,-0.00336 0.05709,-0.021553 -0.1345676,-0.02096 -0.4036089,-0.028483 -0.3859172,-0.010792 0.00646,0.00646 0.040123,0.014094 0.074808,0.016965 0.034685,0.00287 0.063063,0.011843 0.063063,0.019939 0,0.019891 -0.2020152,0.011335 -0.3189174,-0.01351 -0.087333,-0.018561 -0.090019,-0.02137 -0.035435,-0.037068 0.041463,-0.011925 0.020349,-0.016854 -0.070871,-0.016544 -0.099973,3.439e-4 -0.1135893,0.00413 -0.059059,0.016425 0.065997,0.014885 0.062928,0.017132 -0.044638,0.032641 -0.06353,0.00916 -0.1910966,0.018793 -0.2834819,0.021405 -0.1283719,0.00363 -0.1011394,0.00808 0.1155088,0.018873 l 0.283482,0.014121 -0.377976,0.00461 c -0.2078869,0.00254 -0.464139,-0.00209 -0.569449,-0.010298 L 1.640381,7.0178344 1.6142111,6.8616133 C 1.5998178,6.7756917 1.5821666,6.6494588 1.5749879,6.5810957 1.5678098,6.5127324 1.5515485,6.3904809 1.5388541,6.3094253 1.5052776,6.0950429 1.4987866,6.040915 1.4815207,5.8313221 1.4729588,5.7273787 1.4603302,5.6263883 1.4534593,5.6068989 1.4390792,5.566108 1.4091162,4.6602467 1.4091162,4.2662623 c 0,-0.1461717 -0.00797,-0.2657658 -0.017716,-0.2657647 -0.00974,1.6e-6 -0.016658,-0.029232 -0.015362,-0.064962 l 0.00235,-0.064965 0.018915,0.059059 c 0.012356,0.038578 0.01973,-0.023839 0.02127,-0.1799876 0.0013,-0.131476 0.018518,-0.3334568 0.038271,-0.4488469 0.078193,-0.4567533 0.3034464,-1.0696095 0.5220327,-1.4203167 0.062825,-0.1007989 0.1144736,-0.188295 0.1147742,-0.194436 0.00183,-0.037482 0.3726434,-0.3464656 0.5151128,-0.4292285 0.093784,-0.05448 0.1738603,-0.1073068 0.1779479,-0.1173917 0.00409,-0.010085 0.02132,-0.013007 0.038295,-0.00649 0.016976,0.00651 0.045522,-0.00206 0.063438,-0.019045 0.017918,-0.016988 0.058687,-0.033809 0.090602,-0.037379 0.031914,-0.00357 0.063806,-0.014201 0.07087,-0.023624 0.00706,-0.00942 0.023474,-0.017446 0.036468,-0.017828 0.012994,-3.837e-4 0.100136,-0.018986 0.1936514,-0.0413412 0.2282941,-0.0545744 1.2321963,-0.0580559 1.4819881,-0.005139 0.090054,0.0190773 0.1688058,0.0296156 0.1750028,0.0234183 0.0062,-0.0062 0.022876,-0.00215 0.037065,0.009 0.014187,0.011146 0.1161568,0.049995 0.2265968,0.086332 0.11044,0.036337 0.2428515,0.08487 0.2942484,0.1078498 0.051397,0.02298 0.1018919,0.036564 0.1122117,0.030186 0.010319,-0.00638 0.018764,-0.00163 0.018764,0.010556 0,0.022484 0.126314,0.083741 0.1558042,0.075559 0.00885,-0.00246 0.022593,0.00594 0.030543,0.018657 0.00795,0.012716 0.099498,0.079903 0.203441,0.1493041 0.2228543,0.1487952 0.5227788,0.4274076 0.6611699,0.6141884 0.054171,0.073112 0.1388962,0.2272556 0.1882786,0.3425409 0.049383,0.1152854 0.096386,0.2149249 0.1044509,0.2214213 0.00806,0.0065 0.018121,0.043569 0.022344,0.082384 0.00422,0.038815 0.014854,0.076022 0.023625,0.082682 0.00877,0.00666 0.017912,0.038687 0.020315,0.071169 0.025807,0.3486827 0.03665,0.4657968 0.045782,0.4945414 0.01968,0.061947 0.021048,0.7102917 0.00151,0.7102745 -0.01057,-9.2e-6 -0.01742,0.08237 -0.015224,0.1830652 0.0022,0.1006954 -0.0036,0.2017371 -0.012883,0.2245376 -0.00928,0.022802 -0.012539,0.078611 -0.00724,0.1240234 0.0053,0.045412 0.00251,0.082568 -0.00619,0.082568 -0.0087,0 -0.022775,0.061389 -0.031263,0.1364194 -0.00849,0.075031 -0.042597,0.2530933 -0.075795,0.3956939 -0.033198,0.1426007 -0.062176,0.2752201 -0.064394,0.2947096 -0.00222,0.019489 -0.00999,0.04075 -0.01728,0.047247 -0.00729,0.0065 -0.043049,0.096634 -0.079474,0.2003047 -0.036425,0.1036711 -0.1074105,0.2776349 -0.1577465,0.3865861 -0.050335,0.1089512 -0.085701,0.2075069 -0.078591,0.2190128 0.00711,0.011507 0.00328,0.020918 -0.00852,0.020918 -0.0118,0 -0.072105,0.1089634 -0.1340136,0.2421411 C 6.1837491,7.1293783 6.078773,7.2765911 6.011803,7.212631 Z M 6.1504566,6.8884714 c 0.052948,-0.113688 0.096556,-0.2199938 0.096905,-0.236235 3.44e-4,-0.01624 0.010123,-0.029529 0.021717,-0.029529 0.011594,0 0.01451,-0.010631 0.00648,-0.023625 -0.00803,-0.012994 -0.00571,-0.023625 0.00516,-0.023625 0.01683,0 0.1588629,-0.2947043 0.1598596,-0.3316904 1.889e-4,-0.00702 0.023601,-0.060178 0.052024,-0.1181174 0.073142,-0.149094 0.129304,-0.2820855 0.1380313,-0.326858 0.00411,-0.02109 0.00962,-0.041003 0.012234,-0.044251 0.00262,-0.00325 0.00698,-0.01388 0.00969,-0.023625 0.00271,-0.00974 0.017407,-0.047844 0.032651,-0.084665 0.015245,-0.036821 0.022154,-0.075951 0.015354,-0.086956 -0.0068,-0.011004 -8.466e-4,-0.027134 0.013253,-0.035842 0.014092,-0.00871 0.020045,-0.030363 0.013229,-0.048123 -0.00682,-0.017759 -0.00315,-0.038001 0.00815,-0.044981 0.018158,-0.011221 0.028761,-0.055247 0.064149,-0.2663338 0.010268,-0.061254 0.021603,-0.117444 0.05362,-0.2658277 0.012615,-0.058468 0.022339,-0.1381977 0.021609,-0.1771763 -0.00106,-0.056147 -0.010845,-0.041422 -0.047132,0.07087 -0.025191,0.077958 -0.048049,0.1815507 -0.050794,0.2302068 -0.00275,0.048656 -0.014206,0.088521 -0.025463,0.088588 -0.011258,7.06e-5 -0.015462,0.026329 -0.00934,0.058357 0.00612,0.032029 0.00424,0.061263 -0.00419,0.064965 -0.022537,0.0099 -0.1218216,0.3973541 -0.1076833,0.4202303 0.00663,0.010724 0.00326,0.023064 -0.00748,0.027423 -0.010742,0.00436 -0.059865,0.1142293 -0.1091645,0.2441585 C 6.4640249,6.0557396 6.3292339,6.3520348 6.2137891,6.584244 6.098344,6.8164535 6.0038888,7.0203527 6.0038888,7.0373535 c 0,0.016999 -0.023918,0.035518 -0.053153,0.041149 -0.037645,0.00725 -0.030308,0.011176 0.025151,0.013454 0.07614,0.00313 0.080962,-0.00249 0.1745721,-0.2034886 z m -2.2545445,0.095332 c -0.035498,-0.00539 -0.099281,-0.0055 -0.141741,-2.411e-4 -0.04246,0.00526 -0.013417,0.00967 0.064542,0.0098 0.077958,1.418e-4 0.1126974,-0.00417 0.077199,-0.00956 z m -1.4419492,-0.04464 c -0.00785,-0.00785 -0.028225,-0.00869 -0.045278,-0.00185 -0.018846,0.00754 -0.013248,0.013139 0.014272,0.014272 0.024903,0.00103 0.038856,-0.00456 0.031006,-0.012406 z M 2.3122216,6.9155389 c -0.00785,-0.00785 -0.028225,-0.00869 -0.045278,-0.00185 -0.018846,0.00754 -0.013248,0.013139 0.014272,0.014272 0.024903,0.00103 0.038856,-0.00456 0.031006,-0.012406 z m -0.2170962,-0.0581 c 0.00752,-0.012166 -0.013533,-0.022119 -0.046782,-0.022119 -0.033249,0 -0.060453,0.00837 -0.060453,0.018598 0,0.026806 0.090997,0.029797 0.1072348,0.00352 z M 1.9491863,6.7998834 C 1.9417065,6.7803942 1.92594,6.764448 1.9141454,6.764448 c -0.035183,0 -0.1117915,-0.1432237 -0.1642666,-0.3071056 -0.027042,-0.084454 -0.05492,-0.1694987 -0.06195,-0.1889881 -0.00703,-0.019489 -0.016058,-0.062012 -0.020061,-0.094494 -0.004,-0.032482 -0.029473,-0.1706798 -0.056599,-0.3071056 -0.027126,-0.1364258 -0.053051,-0.2723139 -0.057609,-0.3019734 -0.00456,-0.02966 -0.016195,-0.061551 -0.025855,-0.07087 -0.021833,-0.021058 0.00456,0.323188 0.035839,0.467338 0.012684,0.058468 0.028071,0.1381974 0.034192,0.1771764 0.018526,0.1179808 0.040463,0.211292 0.055535,0.236235 0.00785,0.012994 0.016412,0.037742 0.019026,0.054998 0.00262,0.017256 0.012623,0.049147 0.022249,0.07087 0.00962,0.021722 0.018936,0.044812 0.020698,0.051308 0.019579,0.072236 0.04348,0.1181174 0.06153,0.1181174 0.012118,0 0.022032,0.015174 0.022032,0.033721 0,0.03379 0.1071766,0.131644 0.1441855,0.131644 0.010832,0 0.013578,-0.015946 0.0061,-0.035435 z M 1.5079343,3.9960676 c -0.00754,-0.018846 -0.013139,-0.013248 -0.014272,0.014272 -0.00103,0.024903 0.00456,0.038856 0.012406,0.031006 0.00785,-0.00785 0.00869,-0.028225 0.00185,-0.045279 z m 0.08847,-0.408982 c 0.022296,-0.1169363 0.061377,-0.2954578 0.086847,-0.3967141 0.025469,-0.1012566 0.040022,-0.1942741 0.032339,-0.2067058 -0.00768,-0.012433 -0.0048,-0.022603 0.0064,-0.022603 0.011203,0 0.045089,-0.077072 0.075303,-0.1712704 0.030214,-0.094199 0.1038921,-0.2828916 0.1637289,-0.4193174 0.059837,-0.1364258 0.1063072,-0.2560198 0.1032677,-0.2657645 -0.00304,-0.00974 0.00508,-0.017718 0.018042,-0.017718 0.012962,0 0.049209,-0.053153 0.080549,-0.1181176 0.03134,-0.064965 0.047077,-0.1181175 0.034971,-0.1181175 -0.025265,0 -0.1546805,0.1968997 -0.177459,0.2699981 -0.00838,0.026906 -0.023048,0.054235 -0.032586,0.060731 -0.023932,0.016301 -0.1454931,0.2598587 -0.1296966,0.2598587 0.00701,0 -0.00466,0.026576 -0.025942,0.059059 -0.021283,0.032482 -0.030857,0.059059 -0.021275,0.059059 0.00958,0 0.00618,0.013549 -0.00757,0.030109 -0.013742,0.01656 -0.041053,0.077686 -0.060688,0.1358352 -0.030964,0.091699 -0.049514,0.1607748 -0.096612,0.3597682 -0.00539,0.022786 -0.015441,0.050546 -0.022326,0.061687 -0.00689,0.011142 -0.018762,0.061597 -0.02639,0.112123 -0.00763,0.050526 -0.018389,0.1131263 -0.02391,0.1391123 -0.00552,0.025985 -0.020362,0.095085 -0.032978,0.1535528 -0.02866,0.132824 -0.031529,0.333397 -0.00406,0.283482 0.010726,-0.019489 0.037747,-0.1311103 0.060043,-0.2480469 z M 6.8695364,2.8606628 C 6.8440716,2.7013939 6.8267429,2.6426923 6.7707383,2.5259777 6.739051,2.4599406 6.6890866,2.3758867 6.6597059,2.3391914 6.5699937,2.2271433 6.2817994,1.9360427 6.169252,1.8437911 6.1107839,1.7958666 6.0474127,1.7432792 6.0284273,1.7269302 5.8831494,1.6018268 5.5459109,1.3952917 5.5235031,1.4176994 c -0.00864,0.00864 -0.015708,0.00413 -0.015708,-0.010019 0,-0.024057 -0.1280451,-0.078716 -0.1745351,-0.074505 -0.011541,0.00105 -0.027486,-0.00858 -0.035435,-0.021379 -0.020262,-0.032637 -0.1027232,-0.044731 -0.1103996,-0.016191 -0.0035,0.012993 0.1176544,0.084554 0.2692197,0.1590249 0.5214112,0.2561921 1.0824244,0.7470848 1.24753,1.0916023 0.04361,0.090998 0.07929,0.1790388 0.07929,0.1956464 0,0.016608 0.011258,0.030196 0.025016,0.030196 0.013761,0 0.019,0.00974 0.011642,0.02164 -0.014803,0.023953 0.024667,0.1437236 0.047364,0.1437236 0.00788,0 0.0088,-0.034549 0.00204,-0.076776 z M 2.2731445,1.7970141 c -0.00292,-0.028247 -0.035324,-0.022776 -0.045475,0.00768 -0.0052,0.015591 0.00331,0.024096 0.018899,0.018899 0.015592,-0.0052 0.027551,-0.017157 0.026577,-0.026576 z M 2.4213352,1.6471052 c 0.065955,-0.065955 0.062444,-0.1265283 -0.00442,-0.07623 -0.05184,0.038997 -0.098297,0.095254 -0.098297,0.1190335 0,0.036072 0.040873,0.01904 0.1027152,-0.042803 z m 0.4554882,-0.331766 c 0.076279,-0.034622 0.1440053,-0.069171 0.1505016,-0.076777 0.0065,-0.00761 0.027758,-0.016849 0.047247,-0.02054 0.071058,-0.013459 0.1653646,-0.058612 0.1653646,-0.079173 0,-0.049214 -0.1890853,0.01556 -0.4015997,0.1375722 -0.032482,0.018649 -0.077662,0.039808 -0.1004001,0.047019 -0.042366,0.013435 -0.057898,0.054847 -0.020571,0.054847 0.011422,0 0.083179,-0.028327 0.1594588,-0.062948 z M 5.1406928,1.2447521 C 5.0993419,1.2145154 5.0117,1.2004022 5.0117,1.2239802 c 0,0.00608 0.029193,0.026353 0.064873,0.045048 0.076927,0.040306 0.1266801,0.021469 0.06412,-0.024276 z M 4.9524031,1.1889139 c -0.00816,-0.013205 -0.024733,-0.017893 -0.036829,-0.010417 -0.012094,0.00748 -0.021992,0.00233 -0.021992,-0.011426 0,-0.01376 -0.032519,-0.025018 -0.072265,-0.025018 -0.042934,0 -0.066242,0.00974 -0.057427,0.024009 0.00816,0.013205 0.024733,0.017893 0.036829,0.010418 0.012094,-0.00748 0.021992,-0.00233 0.021992,0.011426 0,0.01376 0.032519,0.025018 0.072265,0.025018 0.042934,0 0.066242,-0.00974 0.057427,-0.024009 z M 3.9781713,1.0555363 c -0.01624,-0.00655 -0.042817,-0.00655 -0.059059,0 -0.01624,0.00655 -0.00295,0.011915 0.029529,0.011915 0.032482,0 0.045771,-0.00536 0.02953,-0.011915 z"
       id="path2774" />
    <path
       style="font-variation-settings:normal;opacity:1;vector-effect:none;fill:#b5b28f;fill-opacity:1;stroke-width:0.0892858;stroke-linecap:butt;stroke-linejoin:miter;stroke-miterlimit:4;stroke-dasharray:none;stroke-dashoffset:0;stroke-opacity:1;stop-color:#000000;stop-opacity:1"
       d="M 5.9093934,7.1884656 C 5.8509252,7.1780621 5.7339889,7.1673253 5.649535,7.1646054 L 5.4959819,7.159663 5.6563385,7.1333264 c 0.088196,-0.014486 0.1626097,-0.036968 0.1653646,-0.049961 0.00906,-0.042745 -0.242587,-0.054357 -1.2293203,-0.056722 -0.5553017,-0.00132 -0.97447,-0.011422 -0.97447,-0.023461 0,-0.011618 -0.023918,-0.021968 -0.053153,-0.023003 -0.029234,-0.00103 -0.1594586,-0.00811 -0.289388,-0.015732 -0.167536,-0.00982 -0.2259301,-0.00668 -0.2007997,0.010829 0.029788,0.020749 0.027906,0.024699 -0.011811,0.024783 -0.096197,2.127e-4 -0.2230843,-0.02968 -0.2107483,-0.04964 0.00701,-0.011335 -0.033071,-0.01977 -0.089057,-0.018743 -0.055987,0.00103 -0.085848,0.00844 -0.066359,0.016478 0.054968,0.02267 -0.4306265,0.072839 -0.7219076,0.074585 C 1.7994893,7.0237987 1.7009534,7.0145806 1.6755317,6.9947765 1.6358141,6.9638372 1.5581911,6.4548617 1.4800814,5.713201 1.4263167,5.2027012 1.4016875,4.0436757 1.4359055,3.634332 1.4882181,3.0085249 1.6860881,2.4006842 2.0235006,1.8292858 2.2257232,1.4868278 2.678747,1.1685843 3.1572553,1.0328375 3.4474804,0.95050421 4.3895286,0.939041 4.8227129,1.0125715 5.0262031,1.0471128 5.5598537,1.2358207 5.7832012,1.3522164 5.9164149,1.4216398 6.2483876,1.6892489 6.4428344,1.8839587 6.6549413,2.0963525 6.6958091,2.1516405 6.816597,2.389602 6.9826407,2.7167215 7.0154086,2.82356 7.0445117,3.1327061 7.0936162,3.6543165 7.0968502,3.8095991 7.0676865,4.2454462 7.0063321,5.1623536 6.8324788,5.7677983 6.3547464,6.728266 6.1830054,7.0735462 6.0916341,7.2153062 6.0440285,7.2103371 6.0284471,7.2087231 5.9678637,7.1988674 5.9093952,7.188464 Z M 6.1397227,6.9320531 C 6.1942083,6.8246719 6.2162246,6.749226 6.2155533,6.6721944 L 6.2146008,6.563648 6.1756518,6.6345188 c -0.021421,0.038979 -0.073387,0.1495018 -0.1154795,0.2456069 -0.042092,0.096105 -0.09058,0.1842 -0.1077518,0.1957665 -0.020902,0.014081 -0.0078,0.018791 0.039649,0.014251 0.061049,-0.00584 0.081511,-0.027748 0.147647,-0.1580907 z m -2.2560454,0.051958 c -0.029234,-0.00563 -0.077072,-0.00563 -0.1063057,0 -0.029234,0.00563 -0.00532,0.010237 0.053153,0.010237 0.058468,0 0.082387,-0.00461 0.053153,-0.010237 z M 2.4539629,6.9391635 c -0.00785,-0.00785 -0.028225,-0.00869 -0.045278,-0.00185 -0.018846,0.00754 -0.013248,0.013139 0.014272,0.014272 0.024903,0.00103 0.038856,-0.00456 0.031006,-0.012406 z M 2.3122216,6.9155389 c -0.00785,-0.00785 -0.028225,-0.00869 -0.045278,-0.00185 -0.018846,0.00754 -0.013248,0.013139 0.014272,0.014272 0.024903,0.00103 0.038856,-0.00456 0.031006,-0.012406 z M 2.106008,6.858941 c 0,-0.012994 -0.026576,-0.023625 -0.059059,-0.023625 -0.032482,0 -0.059059,0.010631 -0.059059,0.023625 0,0.012994 0.026576,0.023625 0.059059,0.023625 0.032482,0 0.059059,-0.010631 0.059059,-0.023625 z M 1.964267,6.8158118 c 0,-0.010729 -0.026069,-0.043996 -0.057931,-0.073929 C 1.8191312,6.6599582 1.708566,6.3248235 1.6293101,5.9021887 1.5903256,5.6943018 1.5487521,5.5141134 1.5369247,5.5017704 c -0.0709,-0.073993 0.031584,0.6601917 0.1343179,0.962243 0.057421,0.1688237 0.1987521,0.371304 0.2591707,0.371304 0.018619,0 0.033854,-0.00878 0.033854,-0.019506 z M 6.3761107,6.4160002 C 6.6447416,5.8410379 6.7272564,5.5975117 6.8305998,5.0746654 6.858925,4.9313581 6.8779038,4.78253 6.8727746,4.7439362 l -0.00933,-0.07017 -0.027812,0.06553 C 6.8203411,4.7753378 6.7871316,4.9029048 6.7618391,5.0227785 6.6507932,5.5490826 6.5651555,5.8053533 6.3298174,6.3156001 6.2359186,6.5191869 6.2129101,6.622706 6.2615596,6.622706 c 0.00988,0 0.061433,-0.093018 0.11455,-0.2067058 z M 1.5079343,3.9960676 c -0.00754,-0.018846 -0.013139,-0.013248 -0.014272,0.014272 -0.00103,0.024903 0.00456,0.038856 0.012406,0.031006 0.00785,-0.00785 0.00869,-0.028225 0.00185,-0.045279 z M 1.6450938,3.4099095 C 1.6932064,3.1825332 1.7680488,2.9008226 1.8114101,2.7838863 1.9431927,2.4284963 2.0771362,2.1204486 2.1404478,2.0271534 2.1980354,1.9422935 2.2200212,1.850711 2.1827845,1.8507998 2.1482993,1.850882 1.8997026,2.2880066 1.8335012,2.4649689 1.8116281,2.5234371 1.7791238,2.6044058 1.7612692,2.6448994 1.6729568,2.8451889 1.5156128,3.5534756 1.5154919,3.7512691 1.5153731,3.9454814 1.5524076,3.8479359 1.6450938,3.4099095 Z M 6.8700476,2.8150862 C 6.8620778,2.7477921 6.8174714,2.6122521 6.7709227,2.5138864 6.6980419,2.3598772 6.6446448,2.2940301 6.3864289,2.0397457 6.2215065,1.877334 6.0068405,1.6900892 5.9093934,1.6236461 5.7218602,1.4957786 5.4179497,1.3310403 5.3695921,1.3310403 c -0.015854,0 -0.05456,-0.016862 -0.086014,-0.037471 -0.031454,-0.020609 -0.067082,-0.031357 -0.079174,-0.023884 -0.012092,0.00747 -0.035122,-0.00224 -0.051179,-0.021587 C 5.1219463,1.2104088 5.0117,1.1991776 5.0117,1.2336801 c 0,0.011417 0.034549,0.033565 0.076776,0.049218 0.084892,0.031469 0.071008,0.024381 0.4037608,0.2061007 0.2810896,0.1535057 0.3957727,0.2296701 0.617956,0.410402 0.3046484,0.2478119 0.5340914,0.5206753 0.6168306,0.7335612 0.022162,0.057023 0.048015,0.1143079 0.057451,0.1273008 0.00944,0.012994 0.024543,0.058173 0.033573,0.1004001 0.027362,0.1279634 0.068303,0.092079 0.052,-0.045577 z M 2.2713726,1.8035106 c 0,-0.012993 -0.010631,-0.023624 -0.023625,-0.023624 -0.012994,0 -0.023625,0.01063 -0.023625,0.023624 0,0.012993 0.010631,0.023624 0.023625,0.023624 0.012994,0 0.023625,-0.010631 0.023625,-0.023624 z M 2.4350227,1.6467719 c 0.055326,-0.070336 0.061988,-0.10312 0.020955,-0.10312 -0.038953,0 -0.1373577,0.096033 -0.1373577,0.1340473 0,0.052253 0.064441,0.035131 0.1164027,-0.030927 z M 2.9366311,1.2996034 C 3.031988,1.2563272 3.1392414,1.2087175 3.174972,1.193804 3.254227,1.160724 3.259893,1.118429 3.185068,1.118429 c -0.068704,0 -0.4884732,0.2023334 -0.4884732,0.2354495 0,0.04116 0.059288,0.027754 0.2400353,-0.054275 z m 2.027822,-0.1075489 c 0,-0.023891 -0.081251,-0.049205 -0.1594588,-0.04968 -0.062773,-3.81e-4 -0.071284,0.038722 -0.011811,0.054264 0.074118,0.019369 0.1712706,0.016769 0.1712706,-0.00458 z M 3.9781713,1.0555363 c -0.01624,-0.00655 -0.042817,-0.00655 -0.059059,0 -0.01624,0.00655 -0.00295,0.011915 0.029529,0.011915 0.032482,0 0.045771,-0.00536 0.02953,-0.011915 z"
       id="path2776" />
    <path
       style="fill:none;stroke:#000000;stroke-width:0.264583px;stroke-linecap:butt;stroke-linejoin:miter;stroke-opacity:1"
       d="m 182.47826,14.232102 c 0,0 0,0 0,0 z"
       id="path2780" />
    <path
       style="fill:none;stroke:#000000;stroke-width:0.264583px;stroke-linecap:butt;stroke-linejoin:miter;stroke-opacity:1"
       d="m 182.47826,14.232102 0,6.047619"
       id="path2782"
       sodipodi:nodetypes="cc" />
    <path
       style="fill:none;stroke:none;stroke-width:0.264583px;stroke-linecap:butt;stroke-linejoin:miter;stroke-opacity:1"
       d="M 182.47826,20.279721 H 5.3152902 V 18.02474"
       id="path2784"
       sodipodi:nodetypes="ccc" />
    <path
       id="path2794"
       style="font-variation-settings:normal;opacity:0;vector-effect:none;fill:#f1edbe;fill-opacity:1;stroke-width:2.69966;stroke-linecap:butt;stroke-linejoin:miter;stroke-miterlimit:4;stroke-dasharray:none;stroke-dashoffset:0;stroke-opacity:1;stop-color:#000000;stop-opacity:1;stroke:none"
       transform="scale(0.26458333)"
       d="m 20.64136,73.270229 v -2.773323 l 28.75,-0.431342 c 15.8125,-0.237239 63.46429,-0.598088 105.89286,-0.801887 42.42857,-0.203798 91.60714,-0.527858 109.28571,-0.720131 17.67857,-0.192273 48.05357,-0.520045 67.5,-0.728382 50.36877,-0.539618 120.69308,-1.68646 153.21429,-2.498602 15.32143,-0.382618 30.72321,-0.696998 34.22619,-0.698624 3.50297,-0.0016 6.1636,-0.208401 5.9125,-0.459499 -0.2511,-0.251099 -17.26003,-0.08226 -37.79761,0.37519 -55.72566,1.241229 -113.8763,2.140431 -166.26965,2.571079 -25.73215,0.211506 -53.375,0.536981 -61.42858,0.723278 -8.05357,0.186298 -65.19597,0.555638 -126.98311,0.820754 L 20.603698,69.130771 21.046983,52.051448 c 0.392348,-15.116727 0.611556,-17.448679 1.907645,-20.29361 4.532976,-9.949934 4.983321,-11.312362 5.311091,-16.067669 0.279592,-4.056321 0.07837,-5.510934 -1.062732,-7.6823305 l -1.407628,-2.6785715 5.101572,0.00317 c 2.805865,0.00174 14.744429,0.6468908 26.530144,1.4336606 56.801155,3.7918304 62.568435,3.8646054 296.785715,3.7450344 119.625,-0.06107 240.93288,-0.461935 269.57306,-0.8908106 l 52.07307,-0.779773 3.99836,3.0994226 c 7.88275,6.110486 10.42187,14.838376 9.54745,32.817958 -0.37732,7.75821 -0.51396,8.378413 -1.90634,8.652727 -1.42457,0.280656 -1.41919,0.300378 0.10726,0.392767 1.59335,0.09644 1.60714,0.192232 1.60714,11.168701 V 76.043553 H 652.78422 616.35565 V 68.18641 60.329267 l -5.89286,0.0712 c -3.24107,0.03916 -6.69643,0.315212 -7.67857,0.61345 -0.98214,0.298237 1.50893,0.380172 5.53571,0.182076 l 7.32143,-0.360174 v 7.603867 7.603867 h -297.5 -297.5 z M 589.92874,61.93641 c 7.1e-4,-0.294643 -2.81158,-0.449671 -6.25,-0.344507 -11.09596,0.33937 -12.18678,0.627613 -2.85881,0.755431 5.00893,0.06864 9.1079,-0.116281 9.10881,-0.410924 z m 44.80489,-2.752976 c -0.23735,-0.237351 -0.85343,-0.262728 -1.36905,-0.05639 -0.56981,0.228018 -0.40056,0.397273 0.43155,0.431548 0.75297,0.03101 1.17485,-0.137806 0.9375,-0.375158 z m 20.71428,-1.428572 c -0.23735,-0.237351 -0.85343,-0.262727 -1.36905,-0.05639 -0.56981,0.228019 -0.40056,0.397274 0.43155,0.431548 0.75297,0.03101 1.17485,-0.137806 0.9375,-0.375158 z m 20.71429,-2.142857 c -0.23735,-0.237351 -0.85343,-0.262727 -1.36905,-0.05639 -0.56981,0.228019 -0.40056,0.397274 0.43155,0.431548 0.75297,0.03101 1.17485,-0.137806 0.9375,-0.375158 z m 8.94345,-1.470081 c -0.49107,-0.198152 -1.29465,-0.198152 -1.78572,0 -0.49107,0.198152 -0.0893,0.360275 0.89286,0.360275 0.98214,0 1.38393,-0.162123 0.89286,-0.360275 z" />
    <path
       style="opacity:1;fill:#f1edbe;fill-opacity:1;stroke:none;stroke-width:0.707107"
       d="m 20.723539,55.581362 0.254279,-20.32932 3.421197,-7.262056 C 28.482744,19.321595 29.297341,14.142156 27.370459,9.096688 26.701784,7.3457885 25.623632,5.6033345 24.974564,5.2245681 24.04643,4.6829514 24.322896,4.5322908 26.269315,4.518991 c 4.254627,-0.029072 41.870468,2.6144819 105.005355,7.379532 33.44615,2.524319 130.49656,9.851242 215.66757,16.282051 85.17101,6.430808 194.79024,14.707093 243.59828,18.391742 48.80805,3.68465 90.88974,6.902183 93.51488,7.150075 l 4.77297,0.450712 v 10.868789 10.86879 H 354.64881 20.46926 Z"
       id="path937"
       transform="scale(0.26458333)" />
    <path
       style="opacity:1;fill:#f1edbe;fill-opacity:1;stroke:none;stroke-width:0.707107"
       d="M 657.61771,51.116273 C 635.42155,49.380908 516.82553,40.399637 237.59629,19.308071 196.37196,16.194194 153.25613,12.886909 141.78332,11.958548 l -20.85965,-1.687928 27.22361,0.469896 c 14.97299,0.258443 49.97477,0.409503 77.78175,0.33569 27.80697,-0.07381 110.69756,-0.146517 184.20131,-0.161564 84.88166,-0.01738 157.63695,-0.401776 199.40411,-1.0535445 l 65.76093,-1.026187 3.69466,2.4991405 c 8.55143,5.78435 11.53531,15.358757 10.44451,33.513373 l -0.50686,8.435841 -2.92706,-0.08839 c -1.60989,-0.04861 -14.3822,-0.983985 -28.38292,-2.078605 z"
       id="path939"
       transform="scale(0.26458333)" />
    <path
       style="opacity:1;fill:#f1edbe;fill-opacity:1;stroke:none;stroke-width:0.707107"
       d="M 657.26416,51.125982 C 621.12057,48.341401 556.81481,43.463523 415.43364,32.782059 348.34689,27.7136 278.97971,22.464035 261.28436,21.116358 243.58902,19.768682 205.56435,16.907053 176.7851,14.757184 c -28.77924,-2.14987 -53.12139,-4.030597 -54.09366,-4.179394 -0.97228,-0.148797 10.48285,-0.06733 25.45584,0.181041 14.97299,0.248369 49.97477,0.391188 77.78175,0.317375 27.80697,-0.07381 110.69756,-0.146517 184.20131,-0.161564 84.88166,-0.01738 157.63695,-0.401776 199.40411,-1.0535445 l 65.76093,-1.026187 3.69466,2.4991405 c 8.55143,5.78435 11.53531,15.358757 10.44451,33.513373 l -0.50686,8.435841 -2.92706,-0.08444 c -1.60989,-0.04644 -14.5413,-0.97922 -28.73647,-2.072847 z"
       id="path941"
       transform="scale(0.26458333)" />
    <path
       style="opacity:1;fill:#f1edbe;fill-opacity:1;stroke:none;stroke-width:0.707107"
       d="M 614.4842,47.950638 C 577.53787,45.107738 536.49032,41.964062 523.26743,40.96469 510.04453,39.965318 486.65697,38.196658 471.29508,37.034335 399.4125,31.595499 310.76237,24.894802 293.81128,23.619068 283.5052,22.843436 266.6407,21.569919 256.33462,20.78903 246.02854,20.008142 231.07323,18.880555 223.1006,18.283283 c -47.3208,-3.545057 -97.57121,-7.40142 -99.70206,-7.651426 -1.36118,-0.159703 10.88945,-0.09486 27.22361,0.144093 16.33417,0.238954 49.74497,0.398226 74.24622,0.353938 268.29513,-0.484966 380.13218,-0.905394 412.24325,-1.5497449 l 38.18376,-0.7662072 3.69466,2.5096281 c 8.60995,5.848375 11.60629,15.522251 10.46506,33.78708 l -0.51065,8.172621 -3.64255,-0.08186 c -2.0034,-0.04502 -33.87137,-2.407869 -70.8177,-5.250767 z"
       id="path943"
       transform="scale(0.26458333)" />
    <path
       style="opacity:1;fill:#f1edbe;fill-opacity:1;stroke:none;stroke-width:0.707107"
       d="M 669.63853,52.150954 C 663.02708,51.625467 642.8215,50.07504 624.73725,48.70556 606.65299,47.336081 553.99122,43.349276 507.71108,39.845994 461.43094,36.342711 419.4288,33.161946 414.37298,32.777627 409.31717,32.393308 386.24781,30.649976 363.10774,28.903556 166.99546,14.102634 121.30755,10.590832 121.56129,10.337086 c 0.13643,-0.136432 21.52715,0.103356 47.53493,0.532861 33.56269,0.554271 62.16569,0.569117 98.55211,0.05115 29.58243,-0.421109 90.89244,-0.546889 144.95689,-0.297384 85.74569,0.395711 211.29882,-0.419707 248.90158,-1.6165177 l 13.78858,-0.4388594 4.3488,3.2121281 c 8.0604,5.953618 10.95007,15.709847 9.83171,33.194293 l -0.53144,8.308505 -3.64255,-0.08844 c -2.0034,-0.04864 -9.05192,-0.518384 -15.66337,-1.043872 z"
       id="path945"
       transform="scale(0.26458333)" />
    <path
       style="opacity:1;fill:#f1edbe;fill-opacity:1;stroke:none;stroke-width:0.707107"
       d="m 21.015597,55.581362 0.316148,-20.32932 2.886978,-6.363961 C 29.030957,18.280147 29.712903,13.628758 27.251064,8.205208 L 25.886951,5.2000042 H 30.4405 c 5.506827,0 57.386003,3.678383 134.67734,9.5490118 12.63954,0.96003 31.41322,2.381047 41.7193,3.157815 154.09355,11.614015 163.49112,12.323192 281.25359,21.224463 72.64085,5.49068 95.27049,7.028134 87.14904,5.920893 -0.97227,-0.132555 -14.49568,-1.193667 -30.05203,-2.358026 -15.55635,-1.164359 -47.37616,-3.559145 -70.71068,-5.321746 -23.33453,-1.762601 -69.79144,-5.268371 -103.23759,-7.7906 -33.44615,-2.522228 -68.92523,-5.210274 -78.84241,-5.973434 -9.91717,-0.76316 -24.55428,-1.874203 -32.52691,-2.468985 -7.97263,-0.594782 -24.99622,-1.878766 -37.83021,-2.853297 -12.83399,-0.974531 -33.83506,-2.564074 -46.66905,-3.53232 -43.24048,-3.262227 -54.0845,-4.141789 -53.85786,-4.368429 0.12412,-0.12412 24.97571,0.08779 55.22576,0.470922 30.25006,0.383127 55.31566,0.501564 55.70135,0.263193 0.38569,-0.238371 82.52591,-0.518671 182.53383,-0.622889 100.0079,-0.104219 199.49231,-0.5354808 221.07645,-0.958361 l 39.24388,-0.7688729 3.74767,2.4883089 c 4.25714,2.826586 7.39919,7.284639 9.18656,13.034236 0.95065,3.058076 1.20149,6.490344 1.17392,16.062817 -0.0193,6.695551 -0.26238,12.401058 -0.54023,12.678905 -0.47475,0.474755 -12.23877,-0.333167 -78.97421,-5.423749 -14.97299,-1.142139 -28.49641,-2.044776 -30.05204,-2.005859 -1.55564,0.03892 22.15012,2.021321 52.67945,4.405341 l 55.50789,4.334583 0.19519,10.783379 0.19519,10.783378 H 354.55657 20.69945 Z"
       id="path947"
       transform="scale(0.26458333)" />
    <path
       style="opacity:1;fill:#f1edbe;fill-opacity:1;stroke:none;stroke-width:0.707107"
       d="m 20.996292,55.581362 0.225322,-20.32932 2.892819,-6.363961 C 29.052221,18.025359 29.704166,12.785623 26.813479,7.1956507 L 25.664117,4.9730288 35.46368,5.4194615 c 10.904397,0.4967648 34.551306,2.186361 111.26939,7.9503125 28.58479,2.147622 52.92694,3.81313 54.09367,3.70113 1.16672,-0.112001 -16.17507,-1.588261 -38.53732,-3.280578 -22.36226,-1.692318 -40.81774,-3.247314 -41.0122,-3.455549 -0.19445,-0.208234 8.0787,-0.168699 18.38478,0.08786 10.30608,0.256555 50.55813,0.419292 89.44901,0.361637 38.89087,-0.05766 136.25947,-0.181815 216.37467,-0.275911 80.1152,-0.09409 164.56224,-0.5357651 187.66009,-0.9814887 l 41.99608,-0.8104065 3.52701,2.2632792 c 8.8443,5.675368 12.06522,16.097568 10.784,34.894705 l -0.51881,7.611575 -7.17288,-0.461579 c -16.33654,-1.051267 -19.74923,-0.991358 -7.17289,0.125918 l 13.43503,1.193562 0.19519,10.783379 0.19519,10.783378 H 354.59233 20.77097 Z M 658.85515,51.357533 c -1.26395,-0.156854 -3.33224,-0.156854 -4.59619,0 -1.26396,0.156856 -0.22981,0.285192 2.29809,0.285192 2.52791,0 3.56205,-0.128336 2.2981,-0.285192 z m -9.19239,-0.707106 c -1.26395,-0.156855 -3.33224,-0.156855 -4.59619,0 -1.26395,0.156855 -0.22981,0.285191 2.2981,0.285191 2.5279,0 3.56205,-0.128336 2.29809,-0.285191 z m -9.89949,-0.707107 c -1.26396,-0.156855 -3.33224,-0.156855 -4.5962,0 -1.26395,0.156855 -0.22981,0.285191 2.2981,0.285191 2.52791,0 3.56205,-0.128336 2.2981,-0.285191 z m -11.84404,-0.926123 c -2.72236,-0.279411 -6.69984,-0.492622 -8.83884,-0.473804 l -3.88908,0.03422 4.59619,0.463014 c 2.52791,0.254659 6.50538,0.46787 8.83884,0.473804 l 4.24264,0.01079 -4.94975,-0.508019 z m -15.36691,-1.188926 c -1.06253,-0.161343 -2.97172,-0.164591 -4.24264,-0.0072 -1.27092,0.157374 -0.40157,0.289383 1.93188,0.293352 2.33345,0.004 3.3733,-0.124793 2.31076,-0.286136 z m -9.19239,-0.707106 c -1.06253,-0.161344 -2.97172,-0.164591 -4.24264,-0.0072 -1.27092,0.157375 -0.40157,0.289383 1.93188,0.293352 2.33345,0.004 3.3733,-0.124792 2.31076,-0.286136 z m -9.91216,-0.708329 c -1.06949,-0.162016 -2.81958,-0.162016 -3.88908,0 -1.0695,0.162015 -0.19446,0.294574 1.94454,0.294574 2.139,0 3.01404,-0.132559 1.94454,-0.294574 z m -9.53248,-0.664456 c -0.47873,-0.193693 -1.43333,-0.205483 -2.12132,-0.0262 -0.688,0.179283 -0.2963,0.337759 0.87043,0.352169 1.16672,0.01441 1.72962,-0.132275 1.25089,-0.325967 z m -9.5594,-0.749758 c -1.0695,-0.162015 -2.81959,-0.162015 -3.88909,0 -1.0695,0.162016 -0.19445,0.294574 1.94455,0.294574 2.139,0 3.01404,-0.132558 1.94454,-0.294574 z m -8.83883,-0.712156 c -1.26396,-0.156855 -3.33224,-0.156855 -4.5962,0 -1.26395,0.156855 -0.22981,0.285191 2.2981,0.285191 2.52791,0 3.56205,-0.128336 2.2981,-0.285191 z m -9.53328,-0.700835 c -1.06253,-0.161344 -2.97172,-0.164591 -4.24264,-0.0072 -1.27092,0.157375 -0.40157,0.289383 1.93188,0.293352 2.33345,0.004 3.37329,-0.124792 2.31076,-0.286136 z m -9.19239,-0.707107 c -1.06253,-0.161343 -2.97172,-0.164591 -4.24264,-0.0072 -1.27092,0.157374 -0.40157,0.289382 1.93188,0.293351 2.33345,0.004 3.37329,-0.124792 2.31076,-0.286135 z M 537.599,42.171417 c -1.06253,-0.161343 -2.97172,-0.164591 -4.24264,-0.0072 -1.27092,0.157374 -0.40157,0.289382 1.93188,0.293351 2.33345,0.004 3.3733,-0.124792 2.31076,-0.286135 z m -9.5586,-0.713379 c -1.26396,-0.156854 -3.33224,-0.156854 -4.5962,0 -1.26395,0.156856 -0.22981,0.285192 2.2981,0.285192 2.52791,0 3.56205,-0.128336 2.2981,-0.285192 z m -9.19239,-0.707106 c -1.26395,-0.156855 -3.33224,-0.156855 -4.5962,0 -1.26395,0.156855 -0.2298,0.285191 2.2981,0.285191 2.52791,0 3.56205,-0.128336 2.2981,-0.285191 z m -9.19239,-0.707107 c -1.26395,-0.156855 -3.33224,-0.156855 -4.59619,0 -1.26396,0.156855 -0.22981,0.285192 2.29809,0.285192 2.52791,0 3.56205,-0.128337 2.2981,-0.285192 z m -9.19239,-0.707107 c -1.26395,-0.156855 -3.33224,-0.156855 -4.59619,0 -1.26395,0.156855 -0.22981,0.285192 2.2981,0.285192 2.5279,0 3.56205,-0.128337 2.29809,-0.285192 z m -9.89949,-0.707107 c -1.26396,-0.156854 -3.33224,-0.156854 -4.5962,0 -1.26395,0.156856 -0.22981,0.285192 2.2981,0.285192 2.52791,0 3.56205,-0.128336 2.2981,-0.285192 z m -9.19239,-0.707106 c -1.26395,-0.156855 -3.33224,-0.156855 -4.59619,0 -1.26396,0.156855 -0.22981,0.285191 2.29809,0.285191 2.52791,0 3.56205,-0.128336 2.2981,-0.285191 z m -9.56171,-0.711634 c -1.46708,-0.153072 -3.69447,-0.150505 -4.94975,0.0057 -1.25528,0.156209 -0.0549,0.281449 2.66742,0.278312 2.72236,-0.0031 3.74941,-0.130944 2.28233,-0.284015 z m -9.16396,-0.696308 c -1.06253,-0.161343 -2.97172,-0.164591 -4.24264,-0.0072 -1.27091,0.157374 -0.40157,0.289382 1.93188,0.293351 2.33346,0.004 3.3733,-0.124792 2.31076,-0.286135 z m -9.5586,-0.713379 c -1.26395,-0.156854 -3.33224,-0.156854 -4.5962,0 -1.26395,0.156856 -0.22981,0.285192 2.2981,0.285192 2.52791,0 3.56205,-0.128336 2.2981,-0.285192 z m -9.19239,-0.707107 c -1.26395,-0.156854 -3.33224,-0.156854 -4.59619,0 -1.26396,0.156856 -0.22981,0.285192 2.29809,0.285192 2.52791,0 3.56205,-0.128336 2.2981,-0.285192 z m -9.56171,-0.711633 c -1.46708,-0.153072 -3.69447,-0.150505 -4.94975,0.0057 -1.25528,0.156209 -0.0549,0.281449 2.66742,0.278312 2.72236,-0.0031 3.74941,-0.130944 2.28233,-0.284015 z m -9.16395,-0.696308 c -1.06254,-0.161343 -2.97173,-0.164591 -4.24265,-0.0072 -1.27091,0.157375 -0.40157,0.289383 1.93188,0.293352 2.33346,0.004 3.3733,-0.124792 2.31077,-0.286136 z m -16.80646,-1.297965 c -5.63917,-0.495319 -12.00313,-0.880162 -14.14213,-0.855206 -2.139,0.02495 0.40659,0.425749 5.65685,0.89065 5.25027,0.464902 11.61423,0.849744 14.14214,0.855205 2.61457,0.0057 0.17565,-0.378349 -5.65686,-0.890649 z m -20.32932,-1.536734 c -1.26395,-0.156855 -3.33224,-0.156855 -4.59619,0 -1.26395,0.156855 -0.22981,0.285191 2.2981,0.285191 2.5279,0 3.56205,-0.128336 2.29809,-0.285191 z m -9.89949,-0.707107 c -1.26395,-0.156855 -3.33224,-0.156855 -4.59619,0 -1.26396,0.156855 -0.22981,0.285192 2.29809,0.285192 2.52791,0 3.56205,-0.128337 2.2981,-0.285192 z m -9.19239,-0.707107 c -1.26395,-0.156854 -3.33224,-0.156854 -4.59619,0 -1.26396,0.156856 -0.22981,0.285192 2.29809,0.285192 2.52791,0 3.56206,-0.128336 2.2981,-0.285192 z m -21.74353,-1.642744 c -8.16708,-0.693236 -16.59933,-1.242597 -18.73833,-1.220801 -2.139,0.02179 2.47487,0.58598 10.25305,1.253743 7.77817,0.667763 16.21042,1.217125 18.73833,1.220802 2.5279,0.0037 -2.08597,-0.560508 -10.25305,-1.253744 z m -24.92552,-1.89279 c -1.26395,-0.156854 -3.33224,-0.156854 -4.59619,0 -1.26395,0.156856 -0.22981,0.285192 2.2981,0.285192 2.5279,0 3.56205,-0.128336 2.29809,-0.285192 z m -9.53327,-0.700834 c -1.06254,-0.161344 -2.97173,-0.164592 -4.24264,-0.0072 -1.27092,0.157374 -0.40158,0.289383 1.93188,0.293352 2.33345,0.004 3.37329,-0.124793 2.31076,-0.286136 z m -11.85671,-0.93088 c -2.91681,-0.275194 -7.21248,-0.485752 -9.54594,-0.467908 l -4.24264,0.03244 4.94975,0.457375 c 2.72236,0.251557 7.01803,0.462115 9.54594,0.467907 l 4.5962,0.01053 -5.30331,-0.500351 z m -16.08667,-1.196713 c -1.26396,-0.156854 -3.33225,-0.156854 -4.5962,0 -1.26395,0.156856 -0.22981,0.285192 2.2981,0.285192 2.5279,0 3.56205,-0.128336 2.2981,-0.285192 z m -17.14734,-1.291693 c -5.63918,-0.495319 -12.00314,-0.880162 -14.14214,-0.855206 -2.139,0.02495 0.40659,0.425749 5.65685,0.89065 5.25027,0.464902 11.61423,0.849745 14.14214,0.855206 2.61457,0.0057 0.17565,-0.37835 -5.65685,-0.89065 z m -28.28428,-2.12132 c -5.63917,-0.495319 -12.00313,-0.880162 -14.14213,-0.855206 -2.139,0.02495 0.40659,0.425749 5.65685,0.89065 5.25027,0.464902 11.61423,0.849744 14.14214,0.855205 2.61457,0.0057 0.17565,-0.378349 -5.65686,-0.890649 z m -22.98097,-1.75575 c -2.72236,-0.279411 -6.85893,-0.491354 -9.19238,-0.470984 l -4.24264,0.03704 4.94974,0.457375 c 2.72236,0.251557 6.85894,0.4635 9.19239,0.470984 l 4.24264,0.01361 -4.94975,-0.508018 z"
       id="path949"
       transform="scale(0.26458333)" />
    <path
       style="opacity:1;fill:#f1edbe;fill-opacity:1;stroke:none;stroke-width:0.707107;stroke-opacity:1"
       d="M 20.86806,56.072015 V 36.233349 l 3.170521,-7.281351 C 29.144307,17.226295 29.635187,13.06839 26.613514,7.1415536 l -1.31298,-2.5753343 1.849627,0.2838431 c 1.017295,0.1561137 5.827103,0.4678224 10.688462,0.6926858 4.861359,0.2248635 30.616532,2.0051051 57.233718,3.9560924 22.468669,0.5074804 73.943799,6.0427274 26.440739,1.1202324 -0.0647,-0.06367 103.66783,-0.153012 230.51681,-0.198531 143.05226,-0.05133 248.326,-0.391842 277.22236,-0.896674 l 46.58785,-0.8139103 3.76412,2.8419383 c 3.8991,2.943849 6.53773,6.700561 8.38624,11.939782 1.43556,4.068825 2.1073,14.509093 1.47563,22.934465 l -0.51411,6.857122 c -9.25919,0.351854 -10.26529,0.155177 -0.92867,1.06066 l 0.19519,10.783379 0.19519,10.783378 c -222.51521,0 -445.03042,0 -667.54563,0 z"
       id="path951"
       transform="scale(0.26458333)"
       sodipodi:nodetypes="ccsscssccsscssscccccc" />
  </g>
</svg>
